<?xml version="1.0" encoding="UTF-8" standalone="no"?>
<!DOCTYPE svg PUBLIC "-//W3C//DTD SVG 1.1//EN"
 "http://www.w3.org/Graphics/SVG/1.1/DTD/svg11.dtd">
<!-- Generated by graphviz version 2.43.0 (0)
 -->
<!-- Title: %3 Pages: 1 -->
<svg width="593pt" height="908pt"
 viewBox="0.00 0.00 593.29 908.00" xmlns="http://www.w3.org/2000/svg" xmlns:xlink="http://www.w3.org/1999/xlink">
<g id="graph0" class="graph" transform="scale(1 1) rotate(0) translate(4 904)">
<title>%3</title>
<polygon fill="white" stroke="transparent" points="-4,4 -4,-904 589.29,-904 589.29,4 -4,4"/>
<!-- (5, 53) -->
<g id="node1" class="node">
<title>(5, 53)</title>
<ellipse fill="none" stroke="black" cx="398.65" cy="-666" rx="40.89" ry="18"/>
<text text-anchor="middle" x="398.65" y="-662.3" font-family="Times,serif" font-size="14.00">(5, 53)</text>
</g>
<!-- (29, 63) -->
<g id="node2" class="node">
<title>(29, 63)</title>
<ellipse fill="none" stroke="black" cx="345.65" cy="-594" rx="46.59" ry="18"/>
<text text-anchor="middle" x="345.65" y="-590.3" font-family="Times,serif" font-size="14.00">(29, 63)</text>
</g>
<!-- (5, 53)&#45;&gt;(29, 63) -->
<g id="edge1" class="edge">
<title>(5, 53)&#45;&gt;(29, 63)</title>
<path fill="none" stroke="black" d="M386.35,-648.76C379.83,-640.14 371.66,-629.36 364.37,-619.73"/>
<polygon fill="black" stroke="black" points="367.07,-617.49 358.24,-611.63 361.49,-621.72 367.07,-617.49"/>
</g>
<!-- (19, 85) -->
<g id="node3" class="node">
<title>(19, 85)</title>
<ellipse fill="none" stroke="black" cx="457.65" cy="-594" rx="46.59" ry="18"/>
<text text-anchor="middle" x="457.65" y="-590.3" font-family="Times,serif" font-size="14.00">(19, 85)</text>
</g>
<!-- (5, 53)&#45;&gt;(19, 85) -->
<g id="edge2" class="edge">
<title>(5, 53)&#45;&gt;(19, 85)</title>
<path fill="none" stroke="black" d="M412.33,-648.76C419.67,-640.06 428.86,-629.15 437.05,-619.43"/>
<polygon fill="black" stroke="black" points="439.86,-621.54 443.63,-611.63 434.5,-617.02 439.86,-621.54"/>
</g>
<!-- (33, 83) -->
<g id="node11" class="node">
<title>(33, 83)</title>
<ellipse fill="none" stroke="black" cx="401.65" cy="-522" rx="46.59" ry="18"/>
<text text-anchor="middle" x="401.65" y="-518.3" font-family="Times,serif" font-size="14.00">(33, 83)</text>
</g>
<!-- (29, 63)&#45;&gt;(33, 83) -->
<g id="edge58" class="edge">
<title>(29, 63)&#45;&gt;(33, 83)</title>
<path fill="none" stroke="black" d="M358.92,-576.41C365.82,-567.78 374.4,-557.06 382.05,-547.5"/>
<polygon fill="black" stroke="black" points="384.96,-549.47 388.47,-539.47 379.49,-545.09 384.96,-549.47"/>
</g>
<!-- (57, 53) -->
<g id="node29" class="node">
<title>(57, 53)</title>
<ellipse fill="none" stroke="black" cx="289.65" cy="-522" rx="46.59" ry="18"/>
<text text-anchor="middle" x="289.65" y="-518.3" font-family="Times,serif" font-size="14.00">(57, 53)</text>
</g>
<!-- (29, 63)&#45;&gt;(57, 53) -->
<g id="edge57" class="edge">
<title>(29, 63)&#45;&gt;(57, 53)</title>
<path fill="none" stroke="black" d="M332.37,-576.41C325.47,-567.78 316.9,-557.06 309.24,-547.5"/>
<polygon fill="black" stroke="black" points="311.8,-545.09 302.82,-539.47 306.34,-549.47 311.8,-545.09"/>
</g>
<!-- (19, 85)&#45;&gt;(33, 83) -->
<g id="edge7" class="edge">
<title>(19, 85)&#45;&gt;(33, 83)</title>
<path fill="none" stroke="black" d="M444.37,-576.41C437.47,-567.78 428.9,-557.06 421.24,-547.5"/>
<polygon fill="black" stroke="black" points="423.8,-545.09 414.82,-539.47 418.34,-549.47 423.8,-545.09"/>
</g>
<!-- (11, 111) -->
<g id="node12" class="node">
<title>(11, 111)</title>
<ellipse fill="none" stroke="black" cx="518.65" cy="-522" rx="52.79" ry="18"/>
<text text-anchor="middle" x="518.65" y="-518.3" font-family="Times,serif" font-size="14.00">(11, 111)</text>
</g>
<!-- (19, 85)&#45;&gt;(11, 111) -->
<g id="edge8" class="edge">
<title>(19, 85)&#45;&gt;(11, 111)</title>
<path fill="none" stroke="black" d="M471.79,-576.76C479.38,-568.06 488.89,-557.15 497.35,-547.43"/>
<polygon fill="black" stroke="black" points="500.22,-549.47 504.15,-539.63 494.94,-544.87 500.22,-549.47"/>
</g>
<!-- (123, 103) -->
<g id="node4" class="node">
<title>(123, 103)</title>
<ellipse fill="none" stroke="black" cx="223.65" cy="-162" rx="58.49" ry="18"/>
<text text-anchor="middle" x="223.65" y="-158.3" font-family="Times,serif" font-size="14.00">(123, 103)</text>
</g>
<!-- (133, 137) -->
<g id="node5" class="node">
<title>(133, 137)</title>
<ellipse fill="none" stroke="black" cx="290.65" cy="-90" rx="58.49" ry="18"/>
<text text-anchor="middle" x="290.65" y="-86.3" font-family="Times,serif" font-size="14.00">(133, 137)</text>
</g>
<!-- (123, 103)&#45;&gt;(133, 137) -->
<g id="edge3" class="edge">
<title>(123, 103)&#45;&gt;(133, 137)</title>
<path fill="none" stroke="black" d="M239.52,-144.41C247.95,-135.61 258.46,-124.63 267.75,-114.92"/>
<polygon fill="black" stroke="black" points="270.5,-117.11 274.88,-107.47 265.44,-112.27 270.5,-117.11"/>
</g>
<!-- (140, 139) -->
<g id="node27" class="node">
<title>(140, 139)</title>
<ellipse fill="none" stroke="black" cx="290.65" cy="-18" rx="58.49" ry="18"/>
<text text-anchor="middle" x="290.65" y="-14.3" font-family="Times,serif" font-size="14.00">(140, 139)</text>
</g>
<!-- (133, 137)&#45;&gt;(140, 139) -->
<g id="edge21" class="edge">
<title>(133, 137)&#45;&gt;(140, 139)</title>
<path fill="none" stroke="black" d="M290.65,-71.7C290.65,-63.98 290.65,-54.71 290.65,-46.11"/>
<polygon fill="black" stroke="black" points="294.15,-46.1 290.65,-36.1 287.15,-46.1 294.15,-46.1"/>
</g>
<!-- (65, 131) -->
<g id="node6" class="node">
<title>(65, 131)</title>
<ellipse fill="none" stroke="black" cx="476.65" cy="-306" rx="52.79" ry="18"/>
<text text-anchor="middle" x="476.65" y="-302.3" font-family="Times,serif" font-size="14.00">(65, 131)</text>
</g>
<!-- (89, 131) -->
<g id="node7" class="node">
<title>(89, 131)</title>
<ellipse fill="none" stroke="black" cx="420.65" cy="-234" rx="52.79" ry="18"/>
<text text-anchor="middle" x="420.65" y="-230.3" font-family="Times,serif" font-size="14.00">(89, 131)</text>
</g>
<!-- (65, 131)&#45;&gt;(89, 131) -->
<g id="edge4" class="edge">
<title>(65, 131)&#45;&gt;(89, 131)</title>
<path fill="none" stroke="black" d="M463.37,-288.41C456.47,-279.78 447.9,-269.06 440.24,-259.5"/>
<polygon fill="black" stroke="black" points="442.8,-257.09 433.82,-251.47 437.34,-261.47 442.8,-257.09"/>
</g>
<!-- (105, 127) -->
<g id="node24" class="node">
<title>(105, 127)</title>
<ellipse fill="none" stroke="black" cx="358.65" cy="-162" rx="58.49" ry="18"/>
<text text-anchor="middle" x="358.65" y="-158.3" font-family="Times,serif" font-size="14.00">(105, 127)</text>
</g>
<!-- (89, 131)&#45;&gt;(105, 127) -->
<g id="edge17" class="edge">
<title>(89, 131)&#45;&gt;(105, 127)</title>
<path fill="none" stroke="black" d="M405.95,-216.41C398.23,-207.69 388.62,-196.85 380.09,-187.21"/>
<polygon fill="black" stroke="black" points="382.48,-184.64 373.23,-179.47 377.24,-189.28 382.48,-184.64"/>
</g>
<!-- (99, 11) -->
<g id="node8" class="node">
<title>(99, 11)</title>
<ellipse fill="none" stroke="black" cx="65.65" cy="-522" rx="46.59" ry="18"/>
<text text-anchor="middle" x="65.65" y="-518.3" font-family="Times,serif" font-size="14.00">(99, 11)</text>
</g>
<!-- (125, 43) -->
<g id="node9" class="node">
<title>(125, 43)</title>
<ellipse fill="none" stroke="black" cx="52.65" cy="-378" rx="52.79" ry="18"/>
<text text-anchor="middle" x="52.65" y="-374.3" font-family="Times,serif" font-size="14.00">(125, 43)</text>
</g>
<!-- (99, 11)&#45;&gt;(125, 43) -->
<g id="edge5" class="edge">
<title>(99, 11)&#45;&gt;(125, 43)</title>
<path fill="none" stroke="black" d="M62.64,-503.87C60.93,-493.51 58.89,-480.03 57.65,-468 55.51,-447.35 54.24,-423.9 53.51,-406.26"/>
<polygon fill="black" stroke="black" points="57.01,-405.96 53.13,-396.1 50.01,-406.22 57.01,-405.96"/>
</g>
<!-- (111, 35) -->
<g id="node10" class="node">
<title>(111, 35)</title>
<ellipse fill="none" stroke="black" cx="119.65" cy="-450" rx="52.79" ry="18"/>
<text text-anchor="middle" x="119.65" y="-446.3" font-family="Times,serif" font-size="14.00">(111, 35)</text>
</g>
<!-- (99, 11)&#45;&gt;(111, 35) -->
<g id="edge6" class="edge">
<title>(99, 11)&#45;&gt;(111, 35)</title>
<path fill="none" stroke="black" d="M78.44,-504.41C85.1,-495.78 93.37,-485.06 100.75,-475.5"/>
<polygon fill="black" stroke="black" points="103.6,-477.53 106.94,-467.47 98.06,-473.25 103.6,-477.53"/>
</g>
<!-- (133, 57) -->
<g id="node33" class="node">
<title>(133, 57)</title>
<ellipse fill="none" stroke="black" cx="107.65" cy="-306" rx="52.79" ry="18"/>
<text text-anchor="middle" x="107.65" y="-302.3" font-family="Times,serif" font-size="14.00">(133, 57)</text>
</g>
<!-- (125, 43)&#45;&gt;(133, 57) -->
<g id="edge60" class="edge">
<title>(125, 43)&#45;&gt;(133, 57)</title>
<path fill="none" stroke="black" d="M65.68,-360.41C72.46,-351.78 80.88,-341.06 88.4,-331.5"/>
<polygon fill="black" stroke="black" points="91.28,-333.5 94.7,-323.47 85.77,-329.17 91.28,-333.5"/>
</g>
<!-- (111, 35)&#45;&gt;(125, 43) -->
<g id="edge53" class="edge">
<title>(111, 35)&#45;&gt;(125, 43)</title>
<path fill="none" stroke="black" d="M104.11,-432.76C95.69,-423.97 85.12,-412.93 75.75,-403.14"/>
<polygon fill="black" stroke="black" points="78.01,-400.44 68.57,-395.63 72.95,-405.28 78.01,-400.44"/>
</g>
<!-- (101, 65) -->
<g id="node32" class="node">
<title>(101, 65)</title>
<ellipse fill="none" stroke="black" cx="175.65" cy="-378" rx="52.79" ry="18"/>
<text text-anchor="middle" x="175.65" y="-374.3" font-family="Times,serif" font-size="14.00">(101, 65)</text>
</g>
<!-- (111, 35)&#45;&gt;(101, 65) -->
<g id="edge54" class="edge">
<title>(111, 35)&#45;&gt;(101, 65)</title>
<path fill="none" stroke="black" d="M132.92,-432.41C139.82,-423.78 148.4,-413.06 156.05,-403.5"/>
<polygon fill="black" stroke="black" points="158.96,-405.47 162.47,-395.47 153.49,-401.09 158.96,-405.47"/>
</g>
<!-- (63, 79) -->
<g id="node19" class="node">
<title>(63, 79)</title>
<ellipse fill="none" stroke="black" cx="348.65" cy="-450" rx="46.59" ry="18"/>
<text text-anchor="middle" x="348.65" y="-446.3" font-family="Times,serif" font-size="14.00">(63, 79)</text>
</g>
<!-- (33, 83)&#45;&gt;(63, 79) -->
<g id="edge31" class="edge">
<title>(33, 83)&#45;&gt;(63, 79)</title>
<path fill="none" stroke="black" d="M389.09,-504.41C382.55,-495.78 374.44,-485.06 367.19,-475.5"/>
<polygon fill="black" stroke="black" points="369.94,-473.33 361.12,-467.47 364.36,-477.56 369.94,-473.33"/>
</g>
<!-- (35, 113) -->
<g id="node22" class="node">
<title>(35, 113)</title>
<ellipse fill="none" stroke="black" cx="465.65" cy="-450" rx="52.79" ry="18"/>
<text text-anchor="middle" x="465.65" y="-446.3" font-family="Times,serif" font-size="14.00">(35, 113)</text>
</g>
<!-- (33, 83)&#45;&gt;(35, 113) -->
<g id="edge32" class="edge">
<title>(33, 83)&#45;&gt;(35, 113)</title>
<path fill="none" stroke="black" d="M416.49,-504.76C424.53,-495.97 434.63,-484.93 443.57,-475.14"/>
<polygon fill="black" stroke="black" points="446.27,-477.38 450.44,-467.63 441.11,-472.65 446.27,-477.38"/>
</g>
<!-- (11, 111)&#45;&gt;(35, 113) -->
<g id="edge15" class="edge">
<title>(11, 111)&#45;&gt;(35, 113)</title>
<path fill="none" stroke="black" d="M506.09,-504.41C499.71,-495.99 491.83,-485.58 484.73,-476.2"/>
<polygon fill="black" stroke="black" points="487.31,-473.82 478.48,-467.96 481.73,-478.04 487.31,-473.82"/>
</g>
<!-- (29, 127) -->
<g id="node23" class="node">
<title>(29, 127)</title>
<ellipse fill="none" stroke="black" cx="532.65" cy="-378" rx="52.79" ry="18"/>
<text text-anchor="middle" x="532.65" y="-374.3" font-family="Times,serif" font-size="14.00">(29, 127)</text>
</g>
<!-- (11, 111)&#45;&gt;(29, 127) -->
<g id="edge16" class="edge">
<title>(11, 111)&#45;&gt;(29, 127)</title>
<path fill="none" stroke="black" d="M522.05,-503.88C523.99,-493.54 526.29,-480.06 527.65,-468 529.97,-447.37 531.23,-423.92 531.9,-406.27"/>
<polygon fill="black" stroke="black" points="535.41,-406.22 532.25,-396.11 528.41,-405.98 535.41,-406.22"/>
</g>
<!-- (15, 5) -->
<g id="node13" class="node">
<title>(15, 5)</title>
<ellipse fill="none" stroke="black" cx="292.65" cy="-810" rx="40.89" ry="18"/>
<text text-anchor="middle" x="292.65" y="-806.3" font-family="Times,serif" font-size="14.00">(15, 5)</text>
</g>
<!-- (39, 7) -->
<g id="node14" class="node">
<title>(39, 7)</title>
<ellipse fill="none" stroke="black" cx="242.65" cy="-738" rx="40.89" ry="18"/>
<text text-anchor="middle" x="242.65" y="-734.3" font-family="Times,serif" font-size="14.00">(39, 7)</text>
</g>
<!-- (15, 5)&#45;&gt;(39, 7) -->
<g id="edge9" class="edge">
<title>(15, 5)&#45;&gt;(39, 7)</title>
<path fill="none" stroke="black" d="M280.8,-792.41C274.69,-783.87 267.13,-773.28 260.35,-763.79"/>
<polygon fill="black" stroke="black" points="263.07,-761.57 254.41,-755.47 257.37,-765.64 263.07,-761.57"/>
</g>
<!-- (5, 33) -->
<g id="node15" class="node">
<title>(5, 33)</title>
<ellipse fill="none" stroke="black" cx="342.65" cy="-738" rx="40.89" ry="18"/>
<text text-anchor="middle" x="342.65" y="-734.3" font-family="Times,serif" font-size="14.00">(5, 33)</text>
</g>
<!-- (15, 5)&#45;&gt;(5, 33) -->
<g id="edge10" class="edge">
<title>(15, 5)&#45;&gt;(5, 33)</title>
<path fill="none" stroke="black" d="M304.49,-792.41C310.6,-783.87 318.16,-773.28 324.94,-763.79"/>
<polygon fill="black" stroke="black" points="327.92,-765.64 330.88,-755.47 322.22,-761.57 327.92,-765.64"/>
</g>
<!-- (35, 41) -->
<g id="node25" class="node">
<title>(35, 41)</title>
<ellipse fill="none" stroke="black" cx="292.65" cy="-666" rx="46.59" ry="18"/>
<text text-anchor="middle" x="292.65" y="-662.3" font-family="Times,serif" font-size="14.00">(35, 41)</text>
</g>
<!-- (39, 7)&#45;&gt;(35, 41) -->
<g id="edge34" class="edge">
<title>(39, 7)&#45;&gt;(35, 41)</title>
<path fill="none" stroke="black" d="M254.49,-720.41C260.6,-711.87 268.16,-701.28 274.94,-691.79"/>
<polygon fill="black" stroke="black" points="277.92,-693.64 280.88,-683.47 272.22,-689.57 277.92,-693.64"/>
</g>
<!-- (59, 13) -->
<g id="node34" class="node">
<title>(59, 13)</title>
<ellipse fill="none" stroke="black" cx="180.65" cy="-666" rx="46.59" ry="18"/>
<text text-anchor="middle" x="180.65" y="-662.3" font-family="Times,serif" font-size="14.00">(59, 13)</text>
</g>
<!-- (39, 7)&#45;&gt;(59, 13) -->
<g id="edge33" class="edge">
<title>(39, 7)&#45;&gt;(59, 13)</title>
<path fill="none" stroke="black" d="M228.27,-720.76C220.36,-711.84 210.41,-700.61 201.65,-690.72"/>
<polygon fill="black" stroke="black" points="204.2,-688.31 194.95,-683.15 198.96,-692.95 204.2,-688.31"/>
</g>
<!-- (5, 33)&#45;&gt;(5, 53) -->
<g id="edge30" class="edge">
<title>(5, 33)&#45;&gt;(5, 53)</title>
<path fill="none" stroke="black" d="M355.63,-720.76C362.7,-711.93 371.58,-700.83 379.43,-691.01"/>
<polygon fill="black" stroke="black" points="382.21,-693.14 385.73,-683.15 376.75,-688.77 382.21,-693.14"/>
</g>
<!-- (5, 33)&#45;&gt;(35, 41) -->
<g id="edge29" class="edge">
<title>(5, 33)&#45;&gt;(35, 41)</title>
<path fill="none" stroke="black" d="M330.8,-720.41C324.69,-711.87 317.13,-701.28 310.35,-691.79"/>
<polygon fill="black" stroke="black" points="313.07,-689.57 304.41,-683.47 307.37,-693.64 313.07,-689.57"/>
</g>
<!-- (101, 75) -->
<g id="node16" class="node">
<title>(101, 75)</title>
<ellipse fill="none" stroke="black" cx="230.65" cy="-306" rx="52.79" ry="18"/>
<text text-anchor="middle" x="230.65" y="-302.3" font-family="Times,serif" font-size="14.00">(101, 75)</text>
</g>
<!-- (133, 87) -->
<g id="node17" class="node">
<title>(133, 87)</title>
<ellipse fill="none" stroke="black" cx="162.65" cy="-234" rx="52.79" ry="18"/>
<text text-anchor="middle" x="162.65" y="-230.3" font-family="Times,serif" font-size="14.00">(133, 87)</text>
</g>
<!-- (101, 75)&#45;&gt;(133, 87) -->
<g id="edge11" class="edge">
<title>(101, 75)&#45;&gt;(133, 87)</title>
<path fill="none" stroke="black" d="M214.87,-288.76C206.24,-279.88 195.39,-268.71 185.82,-258.85"/>
<polygon fill="black" stroke="black" points="188.28,-256.37 178.8,-251.63 183.26,-261.24 188.28,-256.37"/>
</g>
<!-- (103, 113) -->
<g id="node18" class="node">
<title>(103, 113)</title>
<ellipse fill="none" stroke="black" cx="291.65" cy="-234" rx="58.49" ry="18"/>
<text text-anchor="middle" x="291.65" y="-230.3" font-family="Times,serif" font-size="14.00">(103, 113)</text>
</g>
<!-- (101, 75)&#45;&gt;(103, 113) -->
<g id="edge12" class="edge">
<title>(101, 75)&#45;&gt;(103, 113)</title>
<path fill="none" stroke="black" d="M245.1,-288.41C252.7,-279.69 262.15,-268.85 270.55,-259.21"/>
<polygon fill="black" stroke="black" points="273.36,-261.31 277.29,-251.47 268.08,-256.71 273.36,-261.31"/>
</g>
<!-- (133, 87)&#45;&gt;(123, 103) -->
<g id="edge48" class="edge">
<title>(133, 87)&#45;&gt;(123, 103)</title>
<path fill="none" stroke="black" d="M177.1,-216.41C184.7,-207.69 194.15,-196.85 202.55,-187.21"/>
<polygon fill="black" stroke="black" points="205.36,-189.31 209.29,-179.47 200.08,-184.71 205.36,-189.31"/>
</g>
<!-- (103, 113)&#45;&gt;(123, 103) -->
<g id="edge51" class="edge">
<title>(103, 113)&#45;&gt;(123, 103)</title>
<path fill="none" stroke="black" d="M275.53,-216.41C266.98,-207.61 256.31,-196.63 246.88,-186.92"/>
<polygon fill="black" stroke="black" points="249.12,-184.2 239.64,-179.47 244.1,-189.08 249.12,-184.2"/>
</g>
<!-- (103, 113)&#45;&gt;(105, 127) -->
<g id="edge52" class="edge">
<title>(103, 113)&#45;&gt;(105, 127)</title>
<path fill="none" stroke="black" d="M307.52,-216.41C315.95,-207.61 326.46,-196.63 335.75,-186.92"/>
<polygon fill="black" stroke="black" points="338.5,-189.11 342.88,-179.47 333.44,-184.27 338.5,-189.11"/>
</g>
<!-- (83, 83) -->
<g id="node20" class="node">
<title>(83, 83)</title>
<ellipse fill="none" stroke="black" cx="292.65" cy="-378" rx="46.59" ry="18"/>
<text text-anchor="middle" x="292.65" y="-374.3" font-family="Times,serif" font-size="14.00">(83, 83)</text>
</g>
<!-- (63, 79)&#45;&gt;(83, 83) -->
<g id="edge13" class="edge">
<title>(63, 79)&#45;&gt;(83, 83)</title>
<path fill="none" stroke="black" d="M335.37,-432.41C328.47,-423.78 319.9,-413.06 312.24,-403.5"/>
<polygon fill="black" stroke="black" points="314.8,-401.09 305.82,-395.47 309.34,-405.47 314.8,-401.09"/>
</g>
<!-- (63, 109) -->
<g id="node21" class="node">
<title>(63, 109)</title>
<ellipse fill="none" stroke="black" cx="409.65" cy="-378" rx="52.79" ry="18"/>
<text text-anchor="middle" x="409.65" y="-374.3" font-family="Times,serif" font-size="14.00">(63, 109)</text>
</g>
<!-- (63, 79)&#45;&gt;(63, 109) -->
<g id="edge14" class="edge">
<title>(63, 79)&#45;&gt;(63, 109)</title>
<path fill="none" stroke="black" d="M362.79,-432.76C370.38,-424.06 379.89,-413.15 388.35,-403.43"/>
<polygon fill="black" stroke="black" points="391.22,-405.47 395.15,-395.63 385.94,-400.87 391.22,-405.47"/>
</g>
<!-- (83, 83)&#45;&gt;(101, 75) -->
<g id="edge55" class="edge">
<title>(83, 83)&#45;&gt;(101, 75)</title>
<path fill="none" stroke="black" d="M278.27,-360.76C270.47,-351.97 260.7,-340.93 252.03,-331.14"/>
<polygon fill="black" stroke="black" points="254.63,-328.8 245.38,-323.63 249.39,-333.44 254.63,-328.8"/>
</g>
<!-- (75, 107) -->
<g id="node31" class="node">
<title>(75, 107)</title>
<ellipse fill="none" stroke="black" cx="353.65" cy="-306" rx="52.79" ry="18"/>
<text text-anchor="middle" x="353.65" y="-302.3" font-family="Times,serif" font-size="14.00">(75, 107)</text>
</g>
<!-- (83, 83)&#45;&gt;(75, 107) -->
<g id="edge56" class="edge">
<title>(83, 83)&#45;&gt;(75, 107)</title>
<path fill="none" stroke="black" d="M306.79,-360.76C314.38,-352.06 323.89,-341.15 332.35,-331.43"/>
<polygon fill="black" stroke="black" points="335.22,-333.47 339.15,-323.63 329.94,-328.87 335.22,-333.47"/>
</g>
<!-- (63, 109)&#45;&gt;(65, 131) -->
<g id="edge26" class="edge">
<title>(63, 109)&#45;&gt;(65, 131)</title>
<path fill="none" stroke="black" d="M425.18,-360.76C433.6,-351.97 444.17,-340.93 453.54,-331.14"/>
<polygon fill="black" stroke="black" points="456.34,-333.28 460.72,-323.63 451.28,-328.44 456.34,-333.28"/>
</g>
<!-- (63, 109)&#45;&gt;(75, 107) -->
<g id="edge25" class="edge">
<title>(63, 109)&#45;&gt;(75, 107)</title>
<path fill="none" stroke="black" d="M396.37,-360.41C389.47,-351.78 380.9,-341.06 373.24,-331.5"/>
<polygon fill="black" stroke="black" points="375.8,-329.09 366.82,-323.47 370.34,-333.47 375.8,-329.09"/>
</g>
<!-- (35, 113)&#45;&gt;(63, 109) -->
<g id="edge42" class="edge">
<title>(35, 113)&#45;&gt;(63, 109)</title>
<path fill="none" stroke="black" d="M452.37,-432.41C445.47,-423.78 436.9,-413.06 429.24,-403.5"/>
<polygon fill="black" stroke="black" points="431.8,-401.09 422.82,-395.47 426.34,-405.47 431.8,-401.09"/>
</g>
<!-- (35, 113)&#45;&gt;(29, 127) -->
<g id="edge43" class="edge">
<title>(35, 113)&#45;&gt;(29, 127)</title>
<path fill="none" stroke="black" d="M481.18,-432.76C489.6,-423.97 500.17,-412.93 509.54,-403.14"/>
<polygon fill="black" stroke="black" points="512.34,-405.28 516.72,-395.63 507.28,-400.44 512.34,-405.28"/>
</g>
<!-- (29, 127)&#45;&gt;(65, 131) -->
<g id="edge59" class="edge">
<title>(29, 127)&#45;&gt;(65, 131)</title>
<path fill="none" stroke="black" d="M519.37,-360.41C512.47,-351.78 503.9,-341.06 496.24,-331.5"/>
<polygon fill="black" stroke="black" points="498.8,-329.09 489.82,-323.47 493.34,-333.47 498.8,-329.09"/>
</g>
<!-- (105, 127)&#45;&gt;(133, 137) -->
<g id="edge20" class="edge">
<title>(105, 127)&#45;&gt;(133, 137)</title>
<path fill="none" stroke="black" d="M342.53,-144.41C333.98,-135.61 323.31,-124.63 313.88,-114.92"/>
<polygon fill="black" stroke="black" points="316.12,-112.2 306.64,-107.47 311.1,-117.08 316.12,-112.2"/>
</g>
<!-- (35, 41)&#45;&gt;(29, 63) -->
<g id="edge19" class="edge">
<title>(35, 41)&#45;&gt;(29, 63)</title>
<path fill="none" stroke="black" d="M305.21,-648.41C311.74,-639.78 319.86,-629.06 327.1,-619.5"/>
<polygon fill="black" stroke="black" points="329.93,-621.56 333.18,-611.47 324.35,-617.33 329.93,-621.56"/>
</g>
<!-- (53, 33) -->
<g id="node26" class="node">
<title>(53, 33)</title>
<ellipse fill="none" stroke="black" cx="233.65" cy="-594" rx="46.59" ry="18"/>
<text text-anchor="middle" x="233.65" y="-590.3" font-family="Times,serif" font-size="14.00">(53, 33)</text>
</g>
<!-- (35, 41)&#45;&gt;(53, 33) -->
<g id="edge18" class="edge">
<title>(35, 41)&#45;&gt;(53, 33)</title>
<path fill="none" stroke="black" d="M278.96,-648.76C271.62,-640.06 262.43,-629.15 254.24,-619.43"/>
<polygon fill="black" stroke="black" points="256.79,-617.02 247.66,-611.63 251.43,-621.54 256.79,-617.02"/>
</g>
<!-- (53, 33)&#45;&gt;(57, 53) -->
<g id="edge47" class="edge">
<title>(53, 33)&#45;&gt;(57, 53)</title>
<path fill="none" stroke="black" d="M246.92,-576.41C253.82,-567.78 262.4,-557.06 270.05,-547.5"/>
<polygon fill="black" stroke="black" points="272.96,-549.47 276.47,-539.47 267.49,-545.09 272.96,-549.47"/>
</g>
<!-- (75, 43) -->
<g id="node35" class="node">
<title>(75, 43)</title>
<ellipse fill="none" stroke="black" cx="177.65" cy="-522" rx="46.59" ry="18"/>
<text text-anchor="middle" x="177.65" y="-518.3" font-family="Times,serif" font-size="14.00">(75, 43)</text>
</g>
<!-- (53, 33)&#45;&gt;(75, 43) -->
<g id="edge46" class="edge">
<title>(53, 33)&#45;&gt;(75, 43)</title>
<path fill="none" stroke="black" d="M220.37,-576.41C213.47,-567.78 204.9,-557.06 197.24,-547.5"/>
<polygon fill="black" stroke="black" points="199.8,-545.09 190.82,-539.47 194.34,-549.47 199.8,-545.09"/>
</g>
<!-- (0, 1) -->
<g id="node28" class="node">
<title>(0, 1)</title>
<ellipse fill="none" stroke="black" cx="292.65" cy="-882" rx="35.19" ry="18"/>
<text text-anchor="middle" x="292.65" y="-878.3" font-family="Times,serif" font-size="14.00">(0, 1)</text>
</g>
<!-- (0, 1)&#45;&gt;(15, 5) -->
<g id="edge22" class="edge">
<title>(0, 1)&#45;&gt;(15, 5)</title>
<path fill="none" stroke="black" d="M292.65,-863.7C292.65,-855.98 292.65,-846.71 292.65,-838.11"/>
<polygon fill="black" stroke="black" points="296.15,-838.1 292.65,-828.1 289.15,-838.1 296.15,-838.1"/>
</g>
<!-- (57, 53)&#45;&gt;(63, 79) -->
<g id="edge24" class="edge">
<title>(57, 53)&#45;&gt;(63, 79)</title>
<path fill="none" stroke="black" d="M303.33,-504.76C310.67,-496.06 319.86,-485.15 328.05,-475.43"/>
<polygon fill="black" stroke="black" points="330.86,-477.54 334.63,-467.63 325.5,-473.02 330.86,-477.54"/>
</g>
<!-- (83, 59) -->
<g id="node30" class="node">
<title>(83, 59)</title>
<ellipse fill="none" stroke="black" cx="236.65" cy="-450" rx="46.59" ry="18"/>
<text text-anchor="middle" x="236.65" y="-446.3" font-family="Times,serif" font-size="14.00">(83, 59)</text>
</g>
<!-- (57, 53)&#45;&gt;(83, 59) -->
<g id="edge23" class="edge">
<title>(57, 53)&#45;&gt;(83, 59)</title>
<path fill="none" stroke="black" d="M277.09,-504.41C270.55,-495.78 262.44,-485.06 255.19,-475.5"/>
<polygon fill="black" stroke="black" points="257.94,-473.33 249.12,-467.47 252.36,-477.56 257.94,-473.33"/>
</g>
<!-- (83, 59)&#45;&gt;(83, 83) -->
<g id="edge41" class="edge">
<title>(83, 59)&#45;&gt;(83, 83)</title>
<path fill="none" stroke="black" d="M249.92,-432.41C256.82,-423.78 265.4,-413.06 273.05,-403.5"/>
<polygon fill="black" stroke="black" points="275.96,-405.47 279.47,-395.47 270.49,-401.09 275.96,-405.47"/>
</g>
<!-- (83, 59)&#45;&gt;(101, 65) -->
<g id="edge40" class="edge">
<title>(83, 59)&#45;&gt;(101, 65)</title>
<path fill="none" stroke="black" d="M222.5,-432.76C214.91,-424.06 205.4,-413.15 196.94,-403.43"/>
<polygon fill="black" stroke="black" points="199.35,-400.87 190.14,-395.63 194.07,-405.47 199.35,-400.87"/>
</g>
<!-- (75, 107)&#45;&gt;(89, 131) -->
<g id="edge39" class="edge">
<title>(75, 107)&#45;&gt;(89, 131)</title>
<path fill="none" stroke="black" d="M369.18,-288.76C377.6,-279.97 388.17,-268.93 397.54,-259.14"/>
<polygon fill="black" stroke="black" points="400.34,-261.28 404.72,-251.63 395.28,-256.44 400.34,-261.28"/>
</g>
<!-- (75, 107)&#45;&gt;(103, 113) -->
<g id="edge38" class="edge">
<title>(75, 107)&#45;&gt;(103, 113)</title>
<path fill="none" stroke="black" d="M338.95,-288.41C331.23,-279.69 321.62,-268.85 313.09,-259.21"/>
<polygon fill="black" stroke="black" points="315.48,-256.64 306.23,-251.47 310.24,-261.28 315.48,-256.64"/>
</g>
<!-- (101, 65)&#45;&gt;(101, 75) -->
<g id="edge28" class="edge">
<title>(101, 65)&#45;&gt;(101, 75)</title>
<path fill="none" stroke="black" d="M188.68,-360.41C195.46,-351.78 203.88,-341.06 211.4,-331.5"/>
<polygon fill="black" stroke="black" points="214.28,-333.5 217.7,-323.47 208.77,-329.17 214.28,-333.5"/>
</g>
<!-- (101, 65)&#45;&gt;(133, 57) -->
<g id="edge27" class="edge">
<title>(101, 65)&#45;&gt;(133, 57)</title>
<path fill="none" stroke="black" d="M159.87,-360.76C151.24,-351.88 140.39,-340.71 130.82,-330.85"/>
<polygon fill="black" stroke="black" points="133.28,-328.37 123.8,-323.63 128.26,-333.24 133.28,-328.37"/>
</g>
<!-- (133, 57)&#45;&gt;(133, 87) -->
<g id="edge35" class="edge">
<title>(133, 57)&#45;&gt;(133, 87)</title>
<path fill="none" stroke="black" d="M120.68,-288.41C127.46,-279.78 135.88,-269.06 143.4,-259.5"/>
<polygon fill="black" stroke="black" points="146.28,-261.5 149.7,-251.47 140.77,-257.17 146.28,-261.5"/>
</g>
<!-- (59, 13)&#45;&gt;(53, 33) -->
<g id="edge45" class="edge">
<title>(59, 13)&#45;&gt;(53, 33)</title>
<path fill="none" stroke="black" d="M193.21,-648.41C199.74,-639.78 207.86,-629.06 215.1,-619.5"/>
<polygon fill="black" stroke="black" points="217.93,-621.56 221.18,-611.47 212.35,-617.33 217.93,-621.56"/>
</g>
<!-- (85, 13) -->
<g id="node36" class="node">
<title>(85, 13)</title>
<ellipse fill="none" stroke="black" cx="121.65" cy="-594" rx="46.59" ry="18"/>
<text text-anchor="middle" x="121.65" y="-590.3" font-family="Times,serif" font-size="14.00">(85, 13)</text>
</g>
<!-- (59, 13)&#45;&gt;(85, 13) -->
<g id="edge44" class="edge">
<title>(59, 13)&#45;&gt;(85, 13)</title>
<path fill="none" stroke="black" d="M166.96,-648.76C159.62,-640.06 150.43,-629.15 142.24,-619.43"/>
<polygon fill="black" stroke="black" points="144.79,-617.02 135.66,-611.63 139.43,-621.54 144.79,-617.02"/>
</g>
<!-- (75, 43)&#45;&gt;(111, 35) -->
<g id="edge36" class="edge">
<title>(75, 43)&#45;&gt;(111, 35)</title>
<path fill="none" stroke="black" d="M163.9,-504.41C156.68,-495.69 147.69,-484.85 139.7,-475.21"/>
<polygon fill="black" stroke="black" points="142.37,-472.94 133.29,-467.47 136.98,-477.4 142.37,-472.94"/>
</g>
<!-- (75, 43)&#45;&gt;(83, 59) -->
<g id="edge37" class="edge">
<title>(75, 43)&#45;&gt;(83, 59)</title>
<path fill="none" stroke="black" d="M191.33,-504.76C198.67,-496.06 207.86,-485.15 216.05,-475.43"/>
<polygon fill="black" stroke="black" points="218.86,-477.54 222.63,-467.63 213.5,-473.02 218.86,-477.54"/>
</g>
<!-- (85, 13)&#45;&gt;(99, 11) -->
<g id="edge49" class="edge">
<title>(85, 13)&#45;&gt;(99, 11)</title>
<path fill="none" stroke="black" d="M108.37,-576.41C101.47,-567.78 92.9,-557.06 85.24,-547.5"/>
<polygon fill="black" stroke="black" points="87.8,-545.09 78.82,-539.47 82.34,-549.47 87.8,-545.09"/>
</g>
<!-- (85, 13)&#45;&gt;(75, 43) -->
<g id="edge50" class="edge">
<title>(85, 13)&#45;&gt;(75, 43)</title>
<path fill="none" stroke="black" d="M134.92,-576.41C141.82,-567.78 150.4,-557.06 158.05,-547.5"/>
<polygon fill="black" stroke="black" points="160.96,-549.47 164.47,-539.47 155.49,-545.09 160.96,-549.47"/>
</g>
</g>
</svg>
