<?xml version="1.0" encoding="UTF-8" standalone="no"?>
<!DOCTYPE svg PUBLIC "-//W3C//DTD SVG 1.1//EN"
 "http://www.w3.org/Graphics/SVG/1.1/DTD/svg11.dtd">
<!-- Generated by graphviz version 2.43.0 (0)
 -->
<!-- Title: %3 Pages: 1 -->
<svg width="593pt" height="1088pt"
 viewBox="0.00 0.00 593.29 1088.00" xmlns="http://www.w3.org/2000/svg" xmlns:xlink="http://www.w3.org/1999/xlink">
<g id="graph0" class="graph" transform="scale(1 1) rotate(0) translate(4 1084)">
<title>%3</title>
<polygon fill="white" stroke="transparent" points="-4,4 -4,-1084 589.29,-1084 589.29,4 -4,4"/>
<!-- (5, 53) -->
<g id="node1" class="node">
<title>(5, 53)</title>
<ellipse fill="none" stroke="black" cx="358.65" cy="-801" rx="40.89" ry="18"/>
<text text-anchor="middle" x="358.65" y="-797.3" font-family="Times,serif" font-size="14.00">(5, 53)</text>
</g>
<!-- (29, 63) -->
<g id="node2" class="node">
<title>(29, 63)</title>
<ellipse fill="none" stroke="black" cx="318.65" cy="-714" rx="46.59" ry="18"/>
<text text-anchor="middle" x="318.65" y="-710.3" font-family="Times,serif" font-size="14.00">(29, 63)</text>
</g>
<!-- (5, 53)&#45;&gt;(29, 63) -->
<g id="edge1" class="edge">
<title>(5, 53)&#45;&gt;(29, 63)</title>
<path fill="none" stroke="black" d="M350.74,-783.21C345.1,-771.22 337.4,-754.85 330.95,-741.16"/>
<polygon fill="black" stroke="black" points="333.96,-739.32 326.53,-731.76 327.62,-742.3 333.96,-739.32"/>
<text text-anchor="middle" x="354.65" y="-753.8" font-family="Times,serif" font-size="14.00">170</text>
</g>
<!-- (19, 85) -->
<g id="node3" class="node">
<title>(19, 85)</title>
<ellipse fill="none" stroke="black" cx="430.65" cy="-714" rx="46.59" ry="18"/>
<text text-anchor="middle" x="430.65" y="-710.3" font-family="Times,serif" font-size="14.00">(19, 85)</text>
</g>
<!-- (5, 53)&#45;&gt;(19, 85) -->
<g id="edge2" class="edge">
<title>(5, 53)&#45;&gt;(19, 85)</title>
<path fill="none" stroke="black" d="M372.19,-784.01C382.81,-771.47 397.78,-753.8 409.91,-739.48"/>
<polygon fill="black" stroke="black" points="412.88,-741.39 416.67,-731.5 407.54,-736.86 412.88,-741.39"/>
<text text-anchor="middle" x="412.65" y="-753.8" font-family="Times,serif" font-size="14.00">266</text>
</g>
<!-- (33, 83) -->
<g id="node11" class="node">
<title>(33, 83)</title>
<ellipse fill="none" stroke="black" cx="399.65" cy="-627" rx="46.59" ry="18"/>
<text text-anchor="middle" x="399.65" y="-623.3" font-family="Times,serif" font-size="14.00">(33, 83)</text>
</g>
<!-- (29, 63)&#45;&gt;(33, 83) -->
<g id="edge58" class="edge">
<title>(29, 63)&#45;&gt;(33, 83)</title>
<path fill="none" stroke="black" d="M334.26,-696.61C346.44,-683.83 363.52,-665.9 377.17,-651.58"/>
<polygon fill="black" stroke="black" points="379.99,-653.7 384.35,-644.05 374.92,-648.88 379.99,-653.7"/>
<text text-anchor="middle" x="377.65" y="-666.8" font-family="Times,serif" font-size="14.00">124</text>
</g>
<!-- (57, 53) -->
<g id="node29" class="node">
<title>(57, 53)</title>
<ellipse fill="none" stroke="black" cx="287.65" cy="-627" rx="46.59" ry="18"/>
<text text-anchor="middle" x="287.65" y="-623.3" font-family="Times,serif" font-size="14.00">(57, 53)</text>
</g>
<!-- (29, 63)&#45;&gt;(57, 53) -->
<g id="edge57" class="edge">
<title>(29, 63)&#45;&gt;(57, 53)</title>
<path fill="none" stroke="black" d="M311.63,-695.98C309.34,-690.29 306.82,-683.89 304.65,-678 301.89,-670.55 299.05,-662.42 296.51,-654.92"/>
<polygon fill="black" stroke="black" points="299.75,-653.57 293.25,-645.2 293.11,-655.8 299.75,-653.57"/>
<text text-anchor="middle" x="318.65" y="-666.8" font-family="Times,serif" font-size="14.00">194</text>
</g>
<!-- (19, 85)&#45;&gt;(33, 83) -->
<g id="edge7" class="edge">
<title>(19, 85)&#45;&gt;(33, 83)</title>
<path fill="none" stroke="black" d="M424.37,-695.8C420.06,-683.97 414.24,-668.03 409.34,-654.58"/>
<polygon fill="black" stroke="black" points="412.52,-653.08 405.8,-644.89 405.94,-655.48 412.52,-653.08"/>
<text text-anchor="middle" x="426.15" y="-666.8" font-family="Times,serif" font-size="14.00">60</text>
</g>
<!-- (11, 111) -->
<g id="node12" class="node">
<title>(11, 111)</title>
<ellipse fill="none" stroke="black" cx="516.65" cy="-627" rx="52.79" ry="18"/>
<text text-anchor="middle" x="516.65" y="-623.3" font-family="Times,serif" font-size="14.00">(11, 111)</text>
</g>
<!-- (19, 85)&#45;&gt;(11, 111) -->
<g id="edge8" class="edge">
<title>(19, 85)&#45;&gt;(11, 111)</title>
<path fill="none" stroke="black" d="M446.82,-697.01C459.83,-684.15 478.3,-665.9 492.97,-651.4"/>
<polygon fill="black" stroke="black" points="495.6,-653.72 500.25,-644.21 490.68,-648.75 495.6,-653.72"/>
<text text-anchor="middle" x="492.65" y="-666.8" font-family="Times,serif" font-size="14.00">202</text>
</g>
<!-- (123, 103) -->
<g id="node4" class="node">
<title>(123, 103)</title>
<ellipse fill="none" stroke="black" cx="118.65" cy="-192" rx="58.49" ry="18"/>
<text text-anchor="middle" x="118.65" y="-188.3" font-family="Times,serif" font-size="14.00">(123, 103)</text>
</g>
<!-- (133, 137) -->
<g id="node5" class="node">
<title>(133, 137)</title>
<ellipse fill="none" stroke="black" cx="185.65" cy="-105" rx="58.49" ry="18"/>
<text text-anchor="middle" x="185.65" y="-101.3" font-family="Times,serif" font-size="14.00">(133, 137)</text>
</g>
<!-- (123, 103)&#45;&gt;(133, 137) -->
<g id="edge3" class="edge">
<title>(123, 103)&#45;&gt;(133, 137)</title>
<path fill="none" stroke="black" d="M131.88,-174.21C141.61,-161.87 154.99,-144.89 165.97,-130.97"/>
<polygon fill="black" stroke="black" points="168.99,-132.78 172.44,-122.76 163.5,-128.45 168.99,-132.78"/>
<text text-anchor="middle" x="170.65" y="-144.8" font-family="Times,serif" font-size="14.00">236</text>
</g>
<!-- (140, 139) -->
<g id="node27" class="node">
<title>(140, 139)</title>
<ellipse fill="none" stroke="black" cx="185.65" cy="-18" rx="58.49" ry="18"/>
<text text-anchor="middle" x="185.65" y="-14.3" font-family="Times,serif" font-size="14.00">(140, 139)</text>
</g>
<!-- (133, 137)&#45;&gt;(140, 139) -->
<g id="edge21" class="edge">
<title>(133, 137)&#45;&gt;(140, 139)</title>
<path fill="none" stroke="black" d="M185.65,-86.8C185.65,-75.16 185.65,-59.55 185.65,-46.24"/>
<polygon fill="black" stroke="black" points="189.15,-46.18 185.65,-36.18 182.15,-46.18 189.15,-46.18"/>
<text text-anchor="middle" x="195.15" y="-57.8" font-family="Times,serif" font-size="14.00">17</text>
</g>
<!-- (65, 131) -->
<g id="node6" class="node">
<title>(65, 131)</title>
<ellipse fill="none" stroke="black" cx="439.65" cy="-366" rx="52.79" ry="18"/>
<text text-anchor="middle" x="439.65" y="-362.3" font-family="Times,serif" font-size="14.00">(65, 131)</text>
</g>
<!-- (89, 131) -->
<g id="node7" class="node">
<title>(89, 131)</title>
<ellipse fill="none" stroke="black" cx="352.65" cy="-279" rx="52.79" ry="18"/>
<text text-anchor="middle" x="352.65" y="-275.3" font-family="Times,serif" font-size="14.00">(89, 131)</text>
</g>
<!-- (65, 131)&#45;&gt;(89, 131) -->
<g id="edge4" class="edge">
<title>(65, 131)&#45;&gt;(89, 131)</title>
<path fill="none" stroke="black" d="M422.87,-348.61C409.75,-335.79 391.34,-317.8 376.66,-303.46"/>
<polygon fill="black" stroke="black" points="378.97,-300.82 369.37,-296.34 374.08,-305.83 378.97,-300.82"/>
<text text-anchor="middle" x="414.65" y="-318.8" font-family="Times,serif" font-size="14.00">152</text>
</g>
<!-- (105, 127) -->
<g id="node24" class="node">
<title>(105, 127)</title>
<ellipse fill="none" stroke="black" cx="253.65" cy="-192" rx="58.49" ry="18"/>
<text text-anchor="middle" x="253.65" y="-188.3" font-family="Times,serif" font-size="14.00">(105, 127)</text>
</g>
<!-- (89, 131)&#45;&gt;(105, 127) -->
<g id="edge17" class="edge">
<title>(89, 131)&#45;&gt;(105, 127)</title>
<path fill="none" stroke="black" d="M334.02,-262.01C318.91,-249.04 297.4,-230.57 280.44,-216"/>
<polygon fill="black" stroke="black" points="282.39,-213.06 272.52,-209.21 277.83,-218.37 282.39,-213.06"/>
<text text-anchor="middle" x="322.65" y="-231.8" font-family="Times,serif" font-size="14.00">132</text>
</g>
<!-- (99, 11) -->
<g id="node8" class="node">
<title>(99, 11)</title>
<ellipse fill="none" stroke="black" cx="63.65" cy="-627" rx="46.59" ry="18"/>
<text text-anchor="middle" x="63.65" y="-623.3" font-family="Times,serif" font-size="14.00">(99, 11)</text>
</g>
<!-- (125, 43) -->
<g id="node9" class="node">
<title>(125, 43)</title>
<ellipse fill="none" stroke="black" cx="52.65" cy="-453" rx="52.79" ry="18"/>
<text text-anchor="middle" x="52.65" y="-449.3" font-family="Times,serif" font-size="14.00">(125, 43)</text>
</g>
<!-- (99, 11)&#45;&gt;(125, 43) -->
<g id="edge5" class="edge">
<title>(99, 11)&#45;&gt;(125, 43)</title>
<path fill="none" stroke="black" d="M57.16,-608.97C52.35,-595.4 46.21,-575.78 43.65,-558 39.89,-531.91 43.3,-501.9 46.96,-480.84"/>
<polygon fill="black" stroke="black" points="50.4,-481.47 48.79,-471 43.52,-480.19 50.4,-481.47"/>
<text text-anchor="middle" x="57.65" y="-536.3" font-family="Times,serif" font-size="14.00">598</text>
</g>
<!-- (111, 35) -->
<g id="node10" class="node">
<title>(111, 35)</title>
<ellipse fill="none" stroke="black" cx="133.65" cy="-540" rx="52.79" ry="18"/>
<text text-anchor="middle" x="133.65" y="-536.3" font-family="Times,serif" font-size="14.00">(111, 35)</text>
</g>
<!-- (99, 11)&#45;&gt;(111, 35) -->
<g id="edge6" class="edge">
<title>(99, 11)&#45;&gt;(111, 35)</title>
<path fill="none" stroke="black" d="M77.14,-609.61C87.44,-597.11 101.79,-579.69 113.45,-565.53"/>
<polygon fill="black" stroke="black" points="116.3,-567.57 119.95,-557.63 110.89,-563.12 116.3,-567.57"/>
<text text-anchor="middle" x="117.65" y="-579.8" font-family="Times,serif" font-size="14.00">144</text>
</g>
<!-- (133, 57) -->
<g id="node33" class="node">
<title>(133, 57)</title>
<ellipse fill="none" stroke="black" cx="70.65" cy="-366" rx="52.79" ry="18"/>
<text text-anchor="middle" x="70.65" y="-362.3" font-family="Times,serif" font-size="14.00">(133, 57)</text>
</g>
<!-- (125, 43)&#45;&gt;(133, 57) -->
<g id="edge60" class="edge">
<title>(125, 43)&#45;&gt;(133, 57)</title>
<path fill="none" stroke="black" d="M56.29,-434.8C58.75,-423.16 62.06,-407.55 64.88,-394.24"/>
<polygon fill="black" stroke="black" points="68.36,-394.68 67.01,-384.18 61.51,-393.23 68.36,-394.68"/>
<text text-anchor="middle" x="77.65" y="-405.8" font-family="Times,serif" font-size="14.00">122</text>
</g>
<!-- (111, 35)&#45;&gt;(125, 43) -->
<g id="edge53" class="edge">
<title>(111, 35)&#45;&gt;(125, 43)</title>
<path fill="none" stroke="black" d="M118.03,-522.61C105.93,-509.91 88.98,-492.13 75.38,-477.86"/>
<polygon fill="black" stroke="black" points="77.65,-475.16 68.21,-470.34 72.58,-479.99 77.65,-475.16"/>
<text text-anchor="middle" x="112.65" y="-492.8" font-family="Times,serif" font-size="14.00">118</text>
</g>
<!-- (101, 65) -->
<g id="node32" class="node">
<title>(101, 65)</title>
<ellipse fill="none" stroke="black" cx="175.65" cy="-453" rx="52.79" ry="18"/>
<text text-anchor="middle" x="175.65" y="-449.3" font-family="Times,serif" font-size="14.00">(101, 65)</text>
</g>
<!-- (111, 35)&#45;&gt;(101, 65) -->
<g id="edge54" class="edge">
<title>(111, 35)&#45;&gt;(101, 65)</title>
<path fill="none" stroke="black" d="M138.61,-521.88C141.76,-512.01 146.26,-499.51 151.65,-489 153.36,-485.66 155.34,-482.25 157.42,-478.95"/>
<polygon fill="black" stroke="black" points="160.39,-480.81 163.02,-470.55 154.56,-476.93 160.39,-480.81"/>
<text text-anchor="middle" x="165.65" y="-492.8" font-family="Times,serif" font-size="14.00">136</text>
</g>
<!-- (63, 79) -->
<g id="node19" class="node">
<title>(63, 79)</title>
<ellipse fill="none" stroke="black" cx="362.65" cy="-540" rx="46.59" ry="18"/>
<text text-anchor="middle" x="362.65" y="-536.3" font-family="Times,serif" font-size="14.00">(63, 79)</text>
</g>
<!-- (33, 83)&#45;&gt;(63, 79) -->
<g id="edge31" class="edge">
<title>(33, 83)&#45;&gt;(63, 79)</title>
<path fill="none" stroke="black" d="M392.34,-609.21C387.15,-597.29 380.08,-581.06 374.15,-567.42"/>
<polygon fill="black" stroke="black" points="377.27,-565.82 370.07,-558.05 370.85,-568.62 377.27,-565.82"/>
<text text-anchor="middle" x="396.65" y="-579.8" font-family="Times,serif" font-size="14.00">230</text>
</g>
<!-- (35, 113) -->
<g id="node22" class="node">
<title>(35, 113)</title>
<ellipse fill="none" stroke="black" cx="479.65" cy="-540" rx="52.79" ry="18"/>
<text text-anchor="middle" x="479.65" y="-536.3" font-family="Times,serif" font-size="14.00">(35, 113)</text>
</g>
<!-- (33, 83)&#45;&gt;(35, 113) -->
<g id="edge32" class="edge">
<title>(33, 83)&#45;&gt;(35, 113)</title>
<path fill="none" stroke="black" d="M415.07,-609.61C427.02,-596.91 443.76,-579.13 457.19,-564.86"/>
<polygon fill="black" stroke="black" points="459.96,-567.02 464.27,-557.34 454.87,-562.22 459.96,-567.02"/>
<text text-anchor="middle" x="457.65" y="-579.8" font-family="Times,serif" font-size="14.00">220</text>
</g>
<!-- (11, 111)&#45;&gt;(35, 113) -->
<g id="edge15" class="edge">
<title>(11, 111)&#45;&gt;(35, 113)</title>
<path fill="none" stroke="black" d="M509.16,-608.8C503.96,-596.85 496.93,-580.72 491.04,-567.18"/>
<polygon fill="black" stroke="black" points="494.2,-565.66 487,-557.89 487.78,-568.45 494.2,-565.66"/>
<text text-anchor="middle" x="513.65" y="-579.8" font-family="Times,serif" font-size="14.00">114</text>
</g>
<!-- (29, 127) -->
<g id="node23" class="node">
<title>(29, 127)</title>
<ellipse fill="none" stroke="black" cx="532.65" cy="-453" rx="52.79" ry="18"/>
<text text-anchor="middle" x="532.65" y="-449.3" font-family="Times,serif" font-size="14.00">(29, 127)</text>
</g>
<!-- (11, 111)&#45;&gt;(29, 127) -->
<g id="edge16" class="edge">
<title>(11, 111)&#45;&gt;(29, 127)</title>
<path fill="none" stroke="black" d="M525.03,-609.19C531.2,-595.73 538.95,-576.17 541.65,-558 545.51,-531.93 542.08,-501.92 538.39,-480.85"/>
<polygon fill="black" stroke="black" points="541.83,-480.19 536.54,-471.01 534.95,-481.48 541.83,-480.19"/>
<text text-anchor="middle" x="556.65" y="-536.3" font-family="Times,serif" font-size="14.00">366</text>
</g>
<!-- (15, 5) -->
<g id="node13" class="node">
<title>(15, 5)</title>
<ellipse fill="none" stroke="black" cx="238.65" cy="-975" rx="40.89" ry="18"/>
<text text-anchor="middle" x="238.65" y="-971.3" font-family="Times,serif" font-size="14.00">(15, 5)</text>
</g>
<!-- (39, 7) -->
<g id="node14" class="node">
<title>(39, 7)</title>
<ellipse fill="none" stroke="black" cx="189.65" cy="-888" rx="40.89" ry="18"/>
<text text-anchor="middle" x="189.65" y="-884.3" font-family="Times,serif" font-size="14.00">(39, 7)</text>
</g>
<!-- (15, 5)&#45;&gt;(39, 7) -->
<g id="edge9" class="edge">
<title>(15, 5)&#45;&gt;(39, 7)</title>
<path fill="none" stroke="black" d="M228.96,-957.21C221.98,-945.1 212.43,-928.53 204.49,-914.76"/>
<polygon fill="black" stroke="black" points="207.33,-912.67 199.31,-905.76 201.27,-916.17 207.33,-912.67"/>
<text text-anchor="middle" x="231.65" y="-927.8" font-family="Times,serif" font-size="14.00">138</text>
</g>
<!-- (5, 33) -->
<g id="node15" class="node">
<title>(5, 33)</title>
<ellipse fill="none" stroke="black" cx="289.65" cy="-888" rx="40.89" ry="18"/>
<text text-anchor="middle" x="289.65" y="-884.3" font-family="Times,serif" font-size="14.00">(5, 33)</text>
</g>
<!-- (15, 5)&#45;&gt;(5, 33) -->
<g id="edge10" class="edge">
<title>(15, 5)&#45;&gt;(5, 33)</title>
<path fill="none" stroke="black" d="M248.72,-957.21C256.1,-944.9 266.25,-928 274.59,-914.09"/>
<polygon fill="black" stroke="black" points="277.62,-915.84 279.76,-905.47 271.62,-912.24 277.62,-915.84"/>
<text text-anchor="middle" x="281.65" y="-927.8" font-family="Times,serif" font-size="14.00">206</text>
</g>
<!-- (35, 41) -->
<g id="node25" class="node">
<title>(35, 41)</title>
<ellipse fill="none" stroke="black" cx="252.65" cy="-801" rx="46.59" ry="18"/>
<text text-anchor="middle" x="252.65" y="-797.3" font-family="Times,serif" font-size="14.00">(35, 41)</text>
</g>
<!-- (39, 7)&#45;&gt;(35, 41) -->
<g id="edge34" class="edge">
<title>(39, 7)&#45;&gt;(35, 41)</title>
<path fill="none" stroke="black" d="M201.79,-870.61C210.97,-858.23 223.73,-841.01 234.17,-826.92"/>
<polygon fill="black" stroke="black" points="237.18,-828.75 240.32,-818.63 231.55,-824.58 237.18,-828.75"/>
<text text-anchor="middle" x="239.65" y="-840.8" font-family="Times,serif" font-size="14.00">210</text>
</g>
<!-- (59, 13) -->
<g id="node34" class="node">
<title>(59, 13)</title>
<ellipse fill="none" stroke="black" cx="140.65" cy="-801" rx="46.59" ry="18"/>
<text text-anchor="middle" x="140.65" y="-797.3" font-family="Times,serif" font-size="14.00">(59, 13)</text>
</g>
<!-- (39, 7)&#45;&gt;(59, 13) -->
<g id="edge33" class="edge">
<title>(39, 7)&#45;&gt;(59, 13)</title>
<path fill="none" stroke="black" d="M176.48,-870.75C172.12,-865.01 167.43,-858.38 163.65,-852 159.26,-844.6 155.12,-836.23 151.59,-828.47"/>
<polygon fill="black" stroke="black" points="154.7,-826.86 147.47,-819.11 148.29,-829.67 154.7,-826.86"/>
<text text-anchor="middle" x="177.65" y="-840.8" font-family="Times,serif" font-size="14.00">190</text>
</g>
<!-- (5, 33)&#45;&gt;(5, 53) -->
<g id="edge30" class="edge">
<title>(5, 33)&#45;&gt;(5, 53)</title>
<path fill="none" stroke="black" d="M302.95,-870.61C313.16,-858.03 327.42,-840.46 338.96,-826.25"/>
<polygon fill="black" stroke="black" points="341.8,-828.31 345.38,-818.34 336.36,-823.9 341.8,-828.31"/>
<text text-anchor="middle" x="337.15" y="-840.8" font-family="Times,serif" font-size="14.00">88</text>
</g>
<!-- (5, 33)&#45;&gt;(35, 41) -->
<g id="edge29" class="edge">
<title>(5, 33)&#45;&gt;(35, 41)</title>
<path fill="none" stroke="black" d="M282.34,-870.21C277.15,-858.29 270.08,-842.06 264.15,-828.42"/>
<polygon fill="black" stroke="black" points="267.27,-826.82 260.07,-819.05 260.85,-829.62 267.27,-826.82"/>
<text text-anchor="middle" x="287.65" y="-840.8" font-family="Times,serif" font-size="14.00">202</text>
</g>
<!-- (101, 75) -->
<g id="node16" class="node">
<title>(101, 75)</title>
<ellipse fill="none" stroke="black" cx="193.65" cy="-366" rx="52.79" ry="18"/>
<text text-anchor="middle" x="193.65" y="-362.3" font-family="Times,serif" font-size="14.00">(101, 75)</text>
</g>
<!-- (133, 87) -->
<g id="node17" class="node">
<title>(133, 87)</title>
<ellipse fill="none" stroke="black" cx="94.65" cy="-279" rx="52.79" ry="18"/>
<text text-anchor="middle" x="94.65" y="-275.3" font-family="Times,serif" font-size="14.00">(133, 87)</text>
</g>
<!-- (101, 75)&#45;&gt;(133, 87) -->
<g id="edge11" class="edge">
<title>(101, 75)&#45;&gt;(133, 87)</title>
<path fill="none" stroke="black" d="M175.02,-349.01C159.81,-335.95 138.13,-317.33 121.11,-302.72"/>
<polygon fill="black" stroke="black" points="123.05,-299.77 113.18,-295.92 118.49,-305.09 123.05,-299.77"/>
<text text-anchor="middle" x="164.65" y="-318.8" font-family="Times,serif" font-size="14.00">228</text>
</g>
<!-- (103, 113) -->
<g id="node18" class="node">
<title>(103, 113)</title>
<ellipse fill="none" stroke="black" cx="223.65" cy="-279" rx="58.49" ry="18"/>
<text text-anchor="middle" x="223.65" y="-275.3" font-family="Times,serif" font-size="14.00">(103, 113)</text>
</g>
<!-- (101, 75)&#45;&gt;(103, 113) -->
<g id="edge12" class="edge">
<title>(101, 75)&#45;&gt;(103, 113)</title>
<path fill="none" stroke="black" d="M199.72,-347.8C203.86,-336.05 209.44,-320.24 214.17,-306.84"/>
<polygon fill="black" stroke="black" points="217.56,-307.77 217.58,-297.18 210.95,-305.44 217.56,-307.77"/>
<text text-anchor="middle" x="224.65" y="-318.8" font-family="Times,serif" font-size="14.00">248</text>
</g>
<!-- (133, 87)&#45;&gt;(123, 103) -->
<g id="edge48" class="edge">
<title>(133, 87)&#45;&gt;(123, 103)</title>
<path fill="none" stroke="black" d="M99.5,-260.8C102.82,-249.05 107.28,-233.24 111.07,-219.84"/>
<polygon fill="black" stroke="black" points="114.45,-220.75 113.8,-210.18 107.71,-218.85 114.45,-220.75"/>
<text text-anchor="middle" x="122.65" y="-231.8" font-family="Times,serif" font-size="14.00">182</text>
</g>
<!-- (103, 113)&#45;&gt;(123, 103) -->
<g id="edge51" class="edge">
<title>(103, 113)&#45;&gt;(123, 103)</title>
<path fill="none" stroke="black" d="M203.9,-262.01C187.72,-248.92 164.64,-230.23 146.57,-215.6"/>
<polygon fill="black" stroke="black" points="148.64,-212.78 138.66,-209.21 144.23,-218.22 148.64,-212.78"/>
<text text-anchor="middle" x="191.65" y="-231.8" font-family="Times,serif" font-size="14.00">102</text>
</g>
<!-- (103, 113)&#45;&gt;(105, 127) -->
<g id="edge52" class="edge">
<title>(103, 113)&#45;&gt;(105, 127)</title>
<path fill="none" stroke="black" d="M229.72,-260.8C233.86,-249.05 239.44,-233.24 244.17,-219.84"/>
<polygon fill="black" stroke="black" points="247.56,-220.77 247.58,-210.18 240.95,-218.44 247.56,-220.77"/>
<text text-anchor="middle" x="250.15" y="-231.8" font-family="Times,serif" font-size="14.00">68</text>
</g>
<!-- (83, 83) -->
<g id="node20" class="node">
<title>(83, 83)</title>
<ellipse fill="none" stroke="black" cx="292.65" cy="-453" rx="46.59" ry="18"/>
<text text-anchor="middle" x="292.65" y="-449.3" font-family="Times,serif" font-size="14.00">(83, 83)</text>
</g>
<!-- (63, 79)&#45;&gt;(83, 83) -->
<g id="edge13" class="edge">
<title>(63, 79)&#45;&gt;(83, 83)</title>
<path fill="none" stroke="black" d="M349.15,-522.61C338.79,-510.03 324.32,-492.46 312.62,-478.25"/>
<polygon fill="black" stroke="black" points="315.16,-475.83 306.1,-470.34 309.76,-480.28 315.16,-475.83"/>
<text text-anchor="middle" x="341.15" y="-492.8" font-family="Times,serif" font-size="14.00">68</text>
</g>
<!-- (63, 109) -->
<g id="node21" class="node">
<title>(63, 109)</title>
<ellipse fill="none" stroke="black" cx="409.65" cy="-453" rx="52.79" ry="18"/>
<text text-anchor="middle" x="409.65" y="-449.3" font-family="Times,serif" font-size="14.00">(63, 109)</text>
</g>
<!-- (63, 79)&#45;&gt;(63, 109) -->
<g id="edge14" class="edge">
<title>(63, 79)&#45;&gt;(63, 109)</title>
<path fill="none" stroke="black" d="M371.93,-522.21C378.63,-510.1 387.79,-493.53 395.4,-479.76"/>
<polygon fill="black" stroke="black" points="398.6,-481.2 400.38,-470.76 392.48,-477.82 398.6,-481.2"/>
<text text-anchor="middle" x="402.65" y="-492.8" font-family="Times,serif" font-size="14.00">158</text>
</g>
<!-- (83, 83)&#45;&gt;(101, 75) -->
<g id="edge55" class="edge">
<title>(83, 83)&#45;&gt;(101, 75)</title>
<path fill="none" stroke="black" d="M274.49,-436.41C259.33,-423.39 237.51,-404.66 220.36,-389.93"/>
<polygon fill="black" stroke="black" points="222.23,-386.93 212.36,-383.07 217.67,-392.24 222.23,-386.93"/>
<text text-anchor="middle" x="263.65" y="-405.8" font-family="Times,serif" font-size="14.00">122</text>
</g>
<!-- (75, 107) -->
<g id="node31" class="node">
<title>(75, 107)</title>
<ellipse fill="none" stroke="black" cx="316.65" cy="-366" rx="52.79" ry="18"/>
<text text-anchor="middle" x="316.65" y="-362.3" font-family="Times,serif" font-size="14.00">(75, 107)</text>
</g>
<!-- (83, 83)&#45;&gt;(75, 107) -->
<g id="edge56" class="edge">
<title>(83, 83)&#45;&gt;(75, 107)</title>
<path fill="none" stroke="black" d="M297.5,-434.8C300.82,-423.05 305.28,-407.24 309.07,-393.84"/>
<polygon fill="black" stroke="black" points="312.45,-394.75 311.8,-384.18 305.71,-392.85 312.45,-394.75"/>
<text text-anchor="middle" x="319.65" y="-405.8" font-family="Times,serif" font-size="14.00">192</text>
</g>
<!-- (63, 109)&#45;&gt;(65, 131) -->
<g id="edge26" class="edge">
<title>(63, 109)&#45;&gt;(65, 131)</title>
<path fill="none" stroke="black" d="M415.72,-434.8C419.89,-422.97 425.52,-407.03 430.26,-393.58"/>
<polygon fill="black" stroke="black" points="433.66,-394.48 433.69,-383.89 427.06,-392.15 433.66,-394.48"/>
<text text-anchor="middle" x="439.65" y="-405.8" font-family="Times,serif" font-size="14.00">144</text>
</g>
<!-- (63, 109)&#45;&gt;(75, 107) -->
<g id="edge25" class="edge">
<title>(63, 109)&#45;&gt;(75, 107)</title>
<path fill="none" stroke="black" d="M392.15,-436.01C377.95,-423.04 357.75,-404.57 341.81,-390"/>
<polygon fill="black" stroke="black" points="344.12,-387.37 334.38,-383.21 339.4,-392.54 344.12,-387.37"/>
<text text-anchor="middle" x="378.15" y="-405.8" font-family="Times,serif" font-size="14.00">26</text>
</g>
<!-- (35, 113)&#45;&gt;(63, 109) -->
<g id="edge42" class="edge">
<title>(35, 113)&#45;&gt;(63, 109)</title>
<path fill="none" stroke="black" d="M465.82,-522.21C455.49,-509.67 441.23,-492.35 429.66,-478.3"/>
<polygon fill="black" stroke="black" points="432.27,-475.96 423.21,-470.47 426.86,-480.41 432.27,-475.96"/>
<text text-anchor="middle" x="462.65" y="-492.8" font-family="Times,serif" font-size="14.00">180</text>
</g>
<!-- (35, 113)&#45;&gt;(29, 127) -->
<g id="edge43" class="edge">
<title>(35, 113)&#45;&gt;(29, 127)</title>
<path fill="none" stroke="black" d="M490.12,-522.21C497.74,-509.98 508.19,-493.21 516.83,-479.36"/>
<polygon fill="black" stroke="black" points="519.87,-481.1 522.2,-470.76 513.93,-477.39 519.87,-481.1"/>
<text text-anchor="middle" x="518.15" y="-492.8" font-family="Times,serif" font-size="14.00">80</text>
</g>
<!-- (29, 127)&#45;&gt;(65, 131) -->
<g id="edge59" class="edge">
<title>(29, 127)&#45;&gt;(65, 131)</title>
<path fill="none" stroke="black" d="M515.15,-436.01C500.95,-423.04 480.75,-404.57 464.81,-390"/>
<polygon fill="black" stroke="black" points="467.12,-387.37 457.38,-383.21 462.4,-392.54 467.12,-387.37"/>
<text text-anchor="middle" x="505.65" y="-405.8" font-family="Times,serif" font-size="14.00">284</text>
</g>
<!-- (105, 127)&#45;&gt;(133, 137) -->
<g id="edge20" class="edge">
<title>(105, 127)&#45;&gt;(133, 137)</title>
<path fill="none" stroke="black" d="M240.21,-174.21C230.25,-161.75 216.5,-144.57 205.3,-130.57"/>
<polygon fill="black" stroke="black" points="208.03,-128.38 199.05,-122.76 202.57,-132.75 208.03,-128.38"/>
<text text-anchor="middle" x="238.65" y="-144.8" font-family="Times,serif" font-size="14.00">226</text>
</g>
<!-- (35, 41)&#45;&gt;(29, 63) -->
<g id="edge19" class="edge">
<title>(35, 41)&#45;&gt;(29, 63)</title>
<path fill="none" stroke="black" d="M265.37,-783.61C275.14,-771.03 288.78,-753.46 299.81,-739.25"/>
<polygon fill="black" stroke="black" points="302.59,-741.38 305.96,-731.34 297.06,-737.09 302.59,-741.38"/>
<text text-anchor="middle" x="298.15" y="-753.8" font-family="Times,serif" font-size="14.00">96</text>
</g>
<!-- (53, 33) -->
<g id="node26" class="node">
<title>(53, 33)</title>
<ellipse fill="none" stroke="black" cx="206.65" cy="-714" rx="46.59" ry="18"/>
<text text-anchor="middle" x="206.65" y="-710.3" font-family="Times,serif" font-size="14.00">(53, 33)</text>
</g>
<!-- (35, 41)&#45;&gt;(53, 33) -->
<g id="edge18" class="edge">
<title>(35, 41)&#45;&gt;(53, 33)</title>
<path fill="none" stroke="black" d="M243.56,-783.21C237,-771.1 228.04,-754.53 220.59,-740.76"/>
<polygon fill="black" stroke="black" points="223.55,-738.89 215.71,-731.76 217.4,-742.22 223.55,-738.89"/>
<text text-anchor="middle" x="242.15" y="-753.8" font-family="Times,serif" font-size="14.00">86</text>
</g>
<!-- (53, 33)&#45;&gt;(57, 53) -->
<g id="edge47" class="edge">
<title>(53, 33)&#45;&gt;(57, 53)</title>
<path fill="none" stroke="black" d="M222.26,-696.61C234.44,-683.83 251.52,-665.9 265.17,-651.58"/>
<polygon fill="black" stroke="black" points="267.99,-653.7 272.35,-644.05 262.92,-648.88 267.99,-653.7"/>
<text text-anchor="middle" x="262.15" y="-666.8" font-family="Times,serif" font-size="14.00">96</text>
</g>
<!-- (75, 43) -->
<g id="node35" class="node">
<title>(75, 43)</title>
<ellipse fill="none" stroke="black" cx="175.65" cy="-627" rx="46.59" ry="18"/>
<text text-anchor="middle" x="175.65" y="-623.3" font-family="Times,serif" font-size="14.00">(75, 43)</text>
</g>
<!-- (53, 33)&#45;&gt;(75, 43) -->
<g id="edge46" class="edge">
<title>(53, 33)&#45;&gt;(75, 43)</title>
<path fill="none" stroke="black" d="M200.37,-695.8C196.06,-683.97 190.24,-668.03 185.34,-654.58"/>
<polygon fill="black" stroke="black" points="188.52,-653.08 181.8,-644.89 181.94,-655.48 188.52,-653.08"/>
<text text-anchor="middle" x="207.65" y="-666.8" font-family="Times,serif" font-size="14.00">124</text>
</g>
<!-- (0, 1) -->
<g id="node28" class="node">
<title>(0, 1)</title>
<ellipse fill="none" stroke="black" cx="238.65" cy="-1062" rx="35.19" ry="18"/>
<text text-anchor="middle" x="238.65" y="-1058.3" font-family="Times,serif" font-size="14.00">(0, 1)</text>
</g>
<!-- (0, 1)&#45;&gt;(15, 5) -->
<g id="edge22" class="edge">
<title>(0, 1)&#45;&gt;(15, 5)</title>
<path fill="none" stroke="black" d="M238.65,-1043.8C238.65,-1032.16 238.65,-1016.55 238.65,-1003.24"/>
<polygon fill="black" stroke="black" points="242.15,-1003.18 238.65,-993.18 235.15,-1003.18 242.15,-1003.18"/>
<text text-anchor="middle" x="248.15" y="-1014.8" font-family="Times,serif" font-size="14.00">67</text>
</g>
<!-- (57, 53)&#45;&gt;(63, 79) -->
<g id="edge24" class="edge">
<title>(57, 53)&#45;&gt;(63, 79)</title>
<path fill="none" stroke="black" d="M302.11,-609.61C313.31,-596.91 329,-579.13 341.6,-564.86"/>
<polygon fill="black" stroke="black" points="344.24,-567.15 348.23,-557.34 338.99,-562.52 344.24,-567.15"/>
<text text-anchor="middle" x="342.65" y="-579.8" font-family="Times,serif" font-size="14.00">160</text>
</g>
<!-- (83, 59) -->
<g id="node30" class="node">
<title>(83, 59)</title>
<ellipse fill="none" stroke="black" cx="250.65" cy="-540" rx="46.59" ry="18"/>
<text text-anchor="middle" x="250.65" y="-536.3" font-family="Times,serif" font-size="14.00">(83, 59)</text>
</g>
<!-- (57, 53)&#45;&gt;(83, 59) -->
<g id="edge23" class="edge">
<title>(57, 53)&#45;&gt;(83, 59)</title>
<path fill="none" stroke="black" d="M276.58,-609.34C273.11,-603.67 269.45,-597.2 266.65,-591 263.3,-583.61 260.35,-575.32 257.92,-567.64"/>
<polygon fill="black" stroke="black" points="261.26,-566.6 255.04,-558.03 254.56,-568.61 261.26,-566.6"/>
<text text-anchor="middle" x="280.65" y="-579.8" font-family="Times,serif" font-size="14.00">124</text>
</g>
<!-- (83, 59)&#45;&gt;(83, 83) -->
<g id="edge41" class="edge">
<title>(83, 59)&#45;&gt;(83, 83)</title>
<path fill="none" stroke="black" d="M256.09,-521.94C259.49,-512.09 264.24,-499.59 269.65,-489 271.28,-485.79 273.15,-482.52 275.09,-479.32"/>
<polygon fill="black" stroke="black" points="278.2,-480.95 280.64,-470.64 272.31,-477.18 278.2,-480.95"/>
<text text-anchor="middle" x="279.15" y="-492.8" font-family="Times,serif" font-size="14.00">88</text>
</g>
<!-- (83, 59)&#45;&gt;(101, 65) -->
<g id="edge40" class="edge">
<title>(83, 59)&#45;&gt;(101, 65)</title>
<path fill="none" stroke="black" d="M236.18,-522.61C224.98,-509.91 209.29,-492.13 196.69,-477.86"/>
<polygon fill="black" stroke="black" points="199.3,-475.52 190.06,-470.34 194.05,-480.15 199.3,-475.52"/>
<text text-anchor="middle" x="231.65" y="-492.8" font-family="Times,serif" font-size="14.00">104</text>
</g>
<!-- (75, 107)&#45;&gt;(89, 131) -->
<g id="edge39" class="edge">
<title>(75, 107)&#45;&gt;(89, 131)</title>
<path fill="none" stroke="black" d="M323.93,-347.8C328.99,-335.85 335.82,-319.72 341.56,-306.18"/>
<polygon fill="black" stroke="black" points="344.82,-307.46 345.49,-296.89 338.37,-304.73 344.82,-307.46"/>
<text text-anchor="middle" x="350.65" y="-318.8" font-family="Times,serif" font-size="14.00">138</text>
</g>
<!-- (75, 107)&#45;&gt;(103, 113) -->
<g id="edge38" class="edge">
<title>(75, 107)&#45;&gt;(103, 113)</title>
<path fill="none" stroke="black" d="M299.15,-349.01C284.95,-336.04 264.75,-317.57 248.81,-303"/>
<polygon fill="black" stroke="black" points="251.12,-300.37 241.38,-296.21 246.4,-305.54 251.12,-300.37"/>
<text text-anchor="middle" x="286.15" y="-318.8" font-family="Times,serif" font-size="14.00">90</text>
</g>
<!-- (101, 65)&#45;&gt;(101, 75) -->
<g id="edge28" class="edge">
<title>(101, 65)&#45;&gt;(101, 75)</title>
<path fill="none" stroke="black" d="M179.29,-434.8C181.75,-423.16 185.06,-407.55 187.88,-394.24"/>
<polygon fill="black" stroke="black" points="191.36,-394.68 190.01,-384.18 184.51,-393.23 191.36,-394.68"/>
<text text-anchor="middle" x="196.15" y="-405.8" font-family="Times,serif" font-size="14.00">22</text>
</g>
<!-- (101, 65)&#45;&gt;(133, 57) -->
<g id="edge27" class="edge">
<title>(101, 65)&#45;&gt;(133, 57)</title>
<path fill="none" stroke="black" d="M155.9,-436.01C139.62,-422.83 116.34,-403.99 98.22,-389.33"/>
<polygon fill="black" stroke="black" points="100.28,-386.49 90.31,-382.92 95.88,-391.93 100.28,-386.49"/>
<text text-anchor="middle" x="143.65" y="-405.8" font-family="Times,serif" font-size="14.00">152</text>
</g>
<!-- (133, 57)&#45;&gt;(133, 87) -->
<g id="edge35" class="edge">
<title>(133, 57)&#45;&gt;(133, 87)</title>
<path fill="none" stroke="black" d="M75.5,-347.8C78.82,-336.05 83.28,-320.24 87.07,-306.84"/>
<polygon fill="black" stroke="black" points="90.45,-307.75 89.8,-297.18 83.71,-305.85 90.45,-307.75"/>
<text text-anchor="middle" x="98.65" y="-318.8" font-family="Times,serif" font-size="14.00">214</text>
</g>
<!-- (59, 13)&#45;&gt;(53, 33) -->
<g id="edge45" class="edge">
<title>(59, 13)&#45;&gt;(53, 33)</title>
<path fill="none" stroke="black" d="M153.37,-783.61C163.14,-771.03 176.78,-753.46 187.81,-739.25"/>
<polygon fill="black" stroke="black" points="190.59,-741.38 193.96,-731.34 185.06,-737.09 190.59,-741.38"/>
<text text-anchor="middle" x="187.15" y="-753.8" font-family="Times,serif" font-size="14.00">86</text>
</g>
<!-- (85, 13) -->
<g id="node36" class="node">
<title>(85, 13)</title>
<ellipse fill="none" stroke="black" cx="94.65" cy="-714" rx="46.59" ry="18"/>
<text text-anchor="middle" x="94.65" y="-710.3" font-family="Times,serif" font-size="14.00">(85, 13)</text>
</g>
<!-- (59, 13)&#45;&gt;(85, 13) -->
<g id="edge44" class="edge">
<title>(59, 13)&#45;&gt;(85, 13)</title>
<path fill="none" stroke="black" d="M130.95,-783.34C127.63,-777.56 123.93,-771.02 120.65,-765 116.38,-757.18 111.86,-748.61 107.81,-740.8"/>
<polygon fill="black" stroke="black" points="110.84,-739.04 103.15,-731.75 104.62,-742.25 110.84,-739.04"/>
<text text-anchor="middle" x="134.65" y="-753.8" font-family="Times,serif" font-size="14.00">214</text>
</g>
<!-- (75, 43)&#45;&gt;(111, 35) -->
<g id="edge36" class="edge">
<title>(75, 43)&#45;&gt;(111, 35)</title>
<path fill="none" stroke="black" d="M162.39,-609.55C158.25,-603.89 153.92,-597.38 150.65,-591 146.92,-583.74 143.73,-575.48 141.15,-567.8"/>
<polygon fill="black" stroke="black" points="144.46,-566.66 138.13,-558.17 137.79,-568.76 144.46,-566.66"/>
<text text-anchor="middle" x="164.65" y="-579.8" font-family="Times,serif" font-size="14.00">212</text>
</g>
<!-- (75, 43)&#45;&gt;(83, 59) -->
<g id="edge37" class="edge">
<title>(75, 43)&#45;&gt;(83, 59)</title>
<path fill="none" stroke="black" d="M190.11,-609.61C201.31,-596.91 217,-579.13 229.6,-564.86"/>
<polygon fill="black" stroke="black" points="232.24,-567.15 236.23,-557.34 226.99,-562.52 232.24,-567.15"/>
<text text-anchor="middle" x="231.65" y="-579.8" font-family="Times,serif" font-size="14.00">108</text>
</g>
<!-- (85, 13)&#45;&gt;(99, 11) -->
<g id="edge49" class="edge">
<title>(85, 13)&#45;&gt;(99, 11)</title>
<path fill="none" stroke="black" d="M88.37,-695.8C84.06,-683.97 78.24,-668.03 73.34,-654.58"/>
<polygon fill="black" stroke="black" points="76.52,-653.08 69.8,-644.89 69.94,-655.48 76.52,-653.08"/>
<text text-anchor="middle" x="95.65" y="-666.8" font-family="Times,serif" font-size="14.00">108</text>
</g>
<!-- (85, 13)&#45;&gt;(75, 43) -->
<g id="edge50" class="edge">
<title>(85, 13)&#45;&gt;(75, 43)</title>
<path fill="none" stroke="black" d="M110.26,-696.61C122.44,-683.83 139.52,-665.9 153.17,-651.58"/>
<polygon fill="black" stroke="black" points="155.99,-653.7 160.35,-644.05 150.92,-648.88 155.99,-653.7"/>
<text text-anchor="middle" x="154.65" y="-666.8" font-family="Times,serif" font-size="14.00">216</text>
</g>
</g>
</svg>
