<?xml version="1.0" encoding="UTF-8" standalone="no"?>
<!DOCTYPE svg PUBLIC "-//W3C//DTD SVG 1.1//EN"
 "http://www.w3.org/Graphics/SVG/1.1/DTD/svg11.dtd">
<!-- Generated by graphviz version 2.43.0 (0)
 -->
<!-- Title: %3 Pages: 1 -->
<svg width="214pt" height="476pt"
 viewBox="0.00 0.00 213.59 476.00" xmlns="http://www.w3.org/2000/svg" xmlns:xlink="http://www.w3.org/1999/xlink">
<g id="graph0" class="graph" transform="scale(1 1) rotate(0) translate(4 472)">
<title>%3</title>
<polygon fill="white" stroke="transparent" points="-4,4 -4,-472 209.59,-472 209.59,4 -4,4"/>
<!-- (0, 1) -->
<g id="node1" class="node">
<title>(0, 1)</title>
<ellipse fill="none" stroke="black" cx="102.8" cy="-450" rx="35.19" ry="18"/>
<text text-anchor="middle" x="102.8" y="-446.3" font-family="Times,serif" font-size="14.00">(0, 1)</text>
</g>
<!-- (5, 3) -->
<g id="node2" class="node">
<title>(5, 3)</title>
<ellipse fill="none" stroke="black" cx="102.8" cy="-378" rx="35.19" ry="18"/>
<text text-anchor="middle" x="102.8" y="-374.3" font-family="Times,serif" font-size="14.00">(5, 3)</text>
</g>
<!-- (0, 1)&#45;&gt;(5, 3) -->
<g id="edge1" class="edge">
<title>(0, 1)&#45;&gt;(5, 3)</title>
<path fill="none" stroke="black" d="M102.8,-431.7C102.8,-423.98 102.8,-414.71 102.8,-406.11"/>
<polygon fill="black" stroke="black" points="106.3,-406.1 102.8,-396.1 99.3,-406.1 106.3,-406.1"/>
</g>
<!-- (13, 5) -->
<g id="node8" class="node">
<title>(13, 5)</title>
<ellipse fill="none" stroke="black" cx="52.8" cy="-306" rx="40.89" ry="18"/>
<text text-anchor="middle" x="52.8" y="-302.3" font-family="Times,serif" font-size="14.00">(13, 5)</text>
</g>
<!-- (5, 3)&#45;&gt;(13, 5) -->
<g id="edge7" class="edge">
<title>(5, 3)&#45;&gt;(13, 5)</title>
<path fill="none" stroke="black" d="M91.2,-360.76C85.1,-352.23 77.5,-341.58 70.67,-332.02"/>
<polygon fill="black" stroke="black" points="73.34,-329.74 64.68,-323.63 67.64,-333.81 73.34,-329.74"/>
</g>
<!-- (3, 11) -->
<g id="node9" class="node">
<title>(3, 11)</title>
<ellipse fill="none" stroke="black" cx="152.8" cy="-306" rx="40.89" ry="18"/>
<text text-anchor="middle" x="152.8" y="-302.3" font-family="Times,serif" font-size="14.00">(3, 11)</text>
</g>
<!-- (5, 3)&#45;&gt;(3, 11) -->
<g id="edge8" class="edge">
<title>(5, 3)&#45;&gt;(3, 11)</title>
<path fill="none" stroke="black" d="M114.39,-360.76C120.49,-352.23 128.09,-341.58 134.93,-332.02"/>
<polygon fill="black" stroke="black" points="137.95,-333.81 140.91,-323.63 132.25,-329.74 137.95,-333.81"/>
</g>
<!-- (13, 13) -->
<g id="node3" class="node">
<title>(13, 13)</title>
<ellipse fill="none" stroke="black" cx="102.8" cy="-234" rx="46.59" ry="18"/>
<text text-anchor="middle" x="102.8" y="-230.3" font-family="Times,serif" font-size="14.00">(13, 13)</text>
</g>
<!-- (19, 13) -->
<g id="node4" class="node">
<title>(19, 13)</title>
<ellipse fill="none" stroke="black" cx="46.8" cy="-162" rx="46.59" ry="18"/>
<text text-anchor="middle" x="46.8" y="-158.3" font-family="Times,serif" font-size="14.00">(19, 13)</text>
</g>
<!-- (13, 13)&#45;&gt;(19, 13) -->
<g id="edge2" class="edge">
<title>(13, 13)&#45;&gt;(19, 13)</title>
<path fill="none" stroke="black" d="M89.52,-216.41C82.62,-207.78 74.05,-197.06 66.39,-187.5"/>
<polygon fill="black" stroke="black" points="68.95,-185.09 59.97,-179.47 63.49,-189.47 68.95,-185.09"/>
</g>
<!-- (11, 21) -->
<g id="node5" class="node">
<title>(11, 21)</title>
<ellipse fill="none" stroke="black" cx="158.8" cy="-162" rx="46.59" ry="18"/>
<text text-anchor="middle" x="158.8" y="-158.3" font-family="Times,serif" font-size="14.00">(11, 21)</text>
</g>
<!-- (13, 13)&#45;&gt;(11, 21) -->
<g id="edge3" class="edge">
<title>(13, 13)&#45;&gt;(11, 21)</title>
<path fill="none" stroke="black" d="M116.07,-216.41C122.97,-207.78 131.55,-197.06 139.2,-187.5"/>
<polygon fill="black" stroke="black" points="142.11,-189.47 145.62,-179.47 136.64,-185.09 142.11,-189.47"/>
</g>
<!-- (19, 19) -->
<g id="node6" class="node">
<title>(19, 19)</title>
<ellipse fill="none" stroke="black" cx="102.8" cy="-90" rx="46.59" ry="18"/>
<text text-anchor="middle" x="102.8" y="-86.3" font-family="Times,serif" font-size="14.00">(19, 19)</text>
</g>
<!-- (19, 13)&#45;&gt;(19, 19) -->
<g id="edge4" class="edge">
<title>(19, 13)&#45;&gt;(19, 19)</title>
<path fill="none" stroke="black" d="M60.07,-144.41C66.97,-135.78 75.55,-125.06 83.2,-115.5"/>
<polygon fill="black" stroke="black" points="86.11,-117.47 89.62,-107.47 80.64,-113.09 86.11,-117.47"/>
</g>
<!-- (11, 21)&#45;&gt;(19, 19) -->
<g id="edge6" class="edge">
<title>(11, 21)&#45;&gt;(19, 19)</title>
<path fill="none" stroke="black" d="M145.52,-144.41C138.62,-135.78 130.05,-125.06 122.39,-115.5"/>
<polygon fill="black" stroke="black" points="124.95,-113.09 115.97,-107.47 119.49,-117.47 124.95,-113.09"/>
</g>
<!-- (22, 21) -->
<g id="node7" class="node">
<title>(22, 21)</title>
<ellipse fill="none" stroke="black" cx="102.8" cy="-18" rx="46.59" ry="18"/>
<text text-anchor="middle" x="102.8" y="-14.3" font-family="Times,serif" font-size="14.00">(22, 21)</text>
</g>
<!-- (19, 19)&#45;&gt;(22, 21) -->
<g id="edge5" class="edge">
<title>(19, 19)&#45;&gt;(22, 21)</title>
<path fill="none" stroke="black" d="M102.8,-71.7C102.8,-63.98 102.8,-54.71 102.8,-46.11"/>
<polygon fill="black" stroke="black" points="106.3,-46.1 102.8,-36.1 99.3,-46.1 106.3,-46.1"/>
</g>
<!-- (13, 5)&#45;&gt;(13, 13) -->
<g id="edge10" class="edge">
<title>(13, 5)&#45;&gt;(13, 13)</title>
<path fill="none" stroke="black" d="M64.65,-288.41C70.75,-279.87 78.31,-269.28 85.09,-259.79"/>
<polygon fill="black" stroke="black" points="88.07,-261.64 91.03,-251.47 82.37,-257.57 88.07,-261.64"/>
</g>
<!-- (13, 5)&#45;&gt;(19, 13) -->
<g id="edge9" class="edge">
<title>(13, 5)&#45;&gt;(19, 13)</title>
<path fill="none" stroke="black" d="M50.36,-287.86C49.01,-277.5 47.47,-264.02 46.8,-252 45.63,-231.3 45.68,-207.86 46,-190.23"/>
<polygon fill="black" stroke="black" points="49.5,-190.15 46.23,-180.08 42.51,-190 49.5,-190.15"/>
</g>
<!-- (3, 11)&#45;&gt;(13, 13) -->
<g id="edge11" class="edge">
<title>(3, 11)&#45;&gt;(13, 13)</title>
<path fill="none" stroke="black" d="M140.95,-288.41C134.84,-279.87 127.28,-269.28 120.5,-259.79"/>
<polygon fill="black" stroke="black" points="123.22,-257.57 114.56,-251.47 117.52,-261.64 123.22,-257.57"/>
</g>
<!-- (3, 11)&#45;&gt;(11, 21) -->
<g id="edge12" class="edge">
<title>(3, 11)&#45;&gt;(11, 21)</title>
<path fill="none" stroke="black" d="M155.23,-287.86C156.58,-277.5 158.12,-264.02 158.8,-252 159.96,-231.3 159.91,-207.86 159.59,-190.23"/>
<polygon fill="black" stroke="black" points="163.09,-190 159.37,-180.08 156.09,-190.15 163.09,-190"/>
</g>
</g>
</svg>
