<?xml version="1.0" encoding="UTF-8" standalone="no"?>
<!DOCTYPE svg PUBLIC "-//W3C//DTD SVG 1.1//EN"
 "http://www.w3.org/Graphics/SVG/1.1/DTD/svg11.dtd">
<!-- Generated by graphviz version 2.43.0 (0)
 -->
<!-- Title: %3 Pages: 1 -->
<svg width="227pt" height="566pt"
 viewBox="0.00 0.00 226.74 566.00" xmlns="http://www.w3.org/2000/svg" xmlns:xlink="http://www.w3.org/1999/xlink">
<g id="graph0" class="graph" transform="scale(1 1) rotate(0) translate(4 562)">
<title>%3</title>
<polygon fill="white" stroke="transparent" points="-4,4 -4,-562 222.74,-562 222.74,4 -4,4"/>
<!-- (0, 1) -->
<g id="node1" class="node">
<title>(0, 1)</title>
<ellipse fill="none" stroke="black" cx="90.95" cy="-540" rx="35.19" ry="18"/>
<text text-anchor="middle" x="90.95" y="-536.3" font-family="Times,serif" font-size="14.00">(0, 1)</text>
</g>
<!-- (5, 3) -->
<g id="node2" class="node">
<title>(5, 3)</title>
<ellipse fill="none" stroke="black" cx="90.95" cy="-453" rx="35.19" ry="18"/>
<text text-anchor="middle" x="90.95" y="-449.3" font-family="Times,serif" font-size="14.00">(5, 3)</text>
</g>
<!-- (0, 1)&#45;&gt;(5, 3) -->
<g id="edge1" class="edge">
<title>(0, 1)&#45;&gt;(5, 3)</title>
<path fill="none" stroke="black" d="M90.95,-521.8C90.95,-510.16 90.95,-494.55 90.95,-481.24"/>
<polygon fill="black" stroke="black" points="94.45,-481.18 90.95,-471.18 87.45,-481.18 94.45,-481.18"/>
<text text-anchor="middle" x="100.45" y="-492.8" font-family="Times,serif" font-size="14.00">15</text>
</g>
<!-- (13, 5) -->
<g id="node8" class="node">
<title>(13, 5)</title>
<ellipse fill="none" stroke="black" cx="40.95" cy="-366" rx="40.89" ry="18"/>
<text text-anchor="middle" x="40.95" y="-362.3" font-family="Times,serif" font-size="14.00">(13, 5)</text>
</g>
<!-- (5, 3)&#45;&gt;(13, 5) -->
<g id="edge7" class="edge">
<title>(5, 3)&#45;&gt;(13, 5)</title>
<path fill="none" stroke="black" d="M81.31,-435.61C74.09,-423.34 64.09,-406.34 55.84,-392.32"/>
<polygon fill="black" stroke="black" points="58.81,-390.47 50.73,-383.63 52.78,-394.02 58.81,-390.47"/>
<text text-anchor="middle" x="77.45" y="-405.8" font-family="Times,serif" font-size="14.00">22</text>
</g>
<!-- (3, 11) -->
<g id="node9" class="node">
<title>(3, 11)</title>
<ellipse fill="none" stroke="black" cx="140.95" cy="-366" rx="40.89" ry="18"/>
<text text-anchor="middle" x="140.95" y="-362.3" font-family="Times,serif" font-size="14.00">(3, 11)</text>
</g>
<!-- (5, 3)&#45;&gt;(3, 11) -->
<g id="edge8" class="edge">
<title>(5, 3)&#45;&gt;(3, 11)</title>
<path fill="none" stroke="black" d="M100.59,-435.61C107.8,-423.34 117.81,-406.34 126.05,-392.32"/>
<polygon fill="black" stroke="black" points="129.11,-394.02 131.16,-383.63 123.08,-390.47 129.11,-394.02"/>
<text text-anchor="middle" x="127.45" y="-405.8" font-family="Times,serif" font-size="14.00">22</text>
</g>
<!-- (13, 13) -->
<g id="node3" class="node">
<title>(13, 13)</title>
<ellipse fill="none" stroke="black" cx="103.95" cy="-279" rx="46.59" ry="18"/>
<text text-anchor="middle" x="103.95" y="-275.3" font-family="Times,serif" font-size="14.00">(13, 13)</text>
</g>
<!-- (19, 13) -->
<g id="node4" class="node">
<title>(19, 13)</title>
<ellipse fill="none" stroke="black" cx="59.95" cy="-192" rx="46.59" ry="18"/>
<text text-anchor="middle" x="59.95" y="-188.3" font-family="Times,serif" font-size="14.00">(19, 13)</text>
</g>
<!-- (13, 13)&#45;&gt;(19, 13) -->
<g id="edge2" class="edge">
<title>(13, 13)&#45;&gt;(19, 13)</title>
<path fill="none" stroke="black" d="M95.25,-261.21C88.99,-249.1 80.41,-232.53 73.28,-218.76"/>
<polygon fill="black" stroke="black" points="76.33,-217.03 68.62,-209.76 70.11,-220.25 76.33,-217.03"/>
<text text-anchor="middle" x="93.45" y="-231.8" font-family="Times,serif" font-size="14.00">10</text>
</g>
<!-- (11, 21) -->
<g id="node5" class="node">
<title>(11, 21)</title>
<ellipse fill="none" stroke="black" cx="171.95" cy="-192" rx="46.59" ry="18"/>
<text text-anchor="middle" x="171.95" y="-188.3" font-family="Times,serif" font-size="14.00">(11, 21)</text>
</g>
<!-- (13, 13)&#45;&gt;(11, 21) -->
<g id="edge3" class="edge">
<title>(13, 13)&#45;&gt;(11, 21)</title>
<path fill="none" stroke="black" d="M117.06,-261.61C127.12,-249.03 141.18,-231.46 152.54,-217.25"/>
<polygon fill="black" stroke="black" points="155.36,-219.33 158.88,-209.34 149.9,-214.96 155.36,-219.33"/>
<text text-anchor="middle" x="151.45" y="-231.8" font-family="Times,serif" font-size="14.00">18</text>
</g>
<!-- (19, 19) -->
<g id="node6" class="node">
<title>(19, 19)</title>
<ellipse fill="none" stroke="black" cx="115.95" cy="-105" rx="46.59" ry="18"/>
<text text-anchor="middle" x="115.95" y="-101.3" font-family="Times,serif" font-size="14.00">(19, 19)</text>
</g>
<!-- (19, 13)&#45;&gt;(19, 19) -->
<g id="edge4" class="edge">
<title>(19, 13)&#45;&gt;(19, 19)</title>
<path fill="none" stroke="black" d="M71.01,-174.21C79.06,-161.98 90.11,-145.21 99.24,-131.36"/>
<polygon fill="black" stroke="black" points="102.33,-133.03 104.91,-122.76 96.48,-129.18 102.33,-133.03"/>
<text text-anchor="middle" x="100.45" y="-144.8" font-family="Times,serif" font-size="14.00">10</text>
</g>
<!-- (11, 21)&#45;&gt;(19, 19) -->
<g id="edge6" class="edge">
<title>(11, 21)&#45;&gt;(19, 19)</title>
<path fill="none" stroke="black" d="M160.88,-174.21C152.83,-161.98 141.78,-145.21 132.66,-131.36"/>
<polygon fill="black" stroke="black" points="135.41,-129.18 126.99,-122.76 129.57,-133.03 135.41,-129.18"/>
<text text-anchor="middle" x="156.45" y="-144.8" font-family="Times,serif" font-size="14.00">10</text>
</g>
<!-- (22, 21) -->
<g id="node7" class="node">
<title>(22, 21)</title>
<ellipse fill="none" stroke="black" cx="115.95" cy="-18" rx="46.59" ry="18"/>
<text text-anchor="middle" x="115.95" y="-14.3" font-family="Times,serif" font-size="14.00">(22, 21)</text>
</g>
<!-- (19, 19)&#45;&gt;(22, 21) -->
<g id="edge5" class="edge">
<title>(19, 19)&#45;&gt;(22, 21)</title>
<path fill="none" stroke="black" d="M115.95,-86.8C115.95,-75.16 115.95,-59.55 115.95,-46.24"/>
<polygon fill="black" stroke="black" points="119.45,-46.18 115.95,-36.18 112.45,-46.18 119.45,-46.18"/>
<text text-anchor="middle" x="120.95" y="-57.8" font-family="Times,serif" font-size="14.00">5</text>
</g>
<!-- (13, 5)&#45;&gt;(13, 13) -->
<g id="edge10" class="edge">
<title>(13, 5)&#45;&gt;(13, 13)</title>
<path fill="none" stroke="black" d="M53.09,-348.61C62.27,-336.23 75.03,-319.01 85.47,-304.92"/>
<polygon fill="black" stroke="black" points="88.48,-306.75 91.62,-296.63 82.86,-302.58 88.48,-306.75"/>
<text text-anchor="middle" x="85.45" y="-318.8" font-family="Times,serif" font-size="14.00">12</text>
</g>
<!-- (13, 5)&#45;&gt;(19, 13) -->
<g id="edge9" class="edge">
<title>(13, 5)&#45;&gt;(19, 13)</title>
<path fill="none" stroke="black" d="M35.57,-347.9C29.83,-327.15 22.39,-291.19 28.95,-261 32.15,-246.25 38.84,-230.86 45.2,-218.46"/>
<polygon fill="black" stroke="black" points="48.29,-220.09 49.92,-209.62 42.12,-216.79 48.29,-220.09"/>
<text text-anchor="middle" x="38.45" y="-275.3" font-family="Times,serif" font-size="14.00">38</text>
</g>
<!-- (3, 11)&#45;&gt;(13, 13) -->
<g id="edge11" class="edge">
<title>(3, 11)&#45;&gt;(13, 13)</title>
<path fill="none" stroke="black" d="M133.64,-348.21C128.45,-336.29 121.39,-320.06 115.45,-306.42"/>
<polygon fill="black" stroke="black" points="118.57,-304.82 111.37,-297.05 112.15,-307.62 118.57,-304.82"/>
<text text-anchor="middle" x="133.45" y="-318.8" font-family="Times,serif" font-size="14.00">24</text>
</g>
<!-- (3, 11)&#45;&gt;(11, 21) -->
<g id="edge12" class="edge">
<title>(3, 11)&#45;&gt;(11, 21)</title>
<path fill="none" stroke="black" d="M146.46,-348.13C150.73,-334.48 156.48,-314.68 159.95,-297 165.01,-271.18 168.18,-241.31 169.99,-220.22"/>
<polygon fill="black" stroke="black" points="173.49,-220.31 170.81,-210.06 166.51,-219.75 173.49,-220.31"/>
<text text-anchor="middle" x="174.45" y="-275.3" font-family="Times,serif" font-size="14.00">30</text>
</g>
</g>
</svg>
